<?xml version="1.0" encoding="utf-8" standalone="no"?>
<!DOCTYPE svg PUBLIC "-//W3C//DTD SVG 1.1//EN"
  "http://www.w3.org/Graphics/SVG/1.1/DTD/svg11.dtd">
<!-- Created with matplotlib (http://matplotlib.org/) -->
<svg height="345.6pt" version="1.1" viewBox="0 0 460.8 345.6" width="460.8pt" xmlns="http://www.w3.org/2000/svg" xmlns:xlink="http://www.w3.org/1999/xlink">
 <defs>
  <style type="text/css">
*{stroke-linecap:butt;stroke-linejoin:round;}
  </style>
 </defs>
 <g id="figure_1">
  <g id="patch_1">
   <path d="M 0 345.6 
L 460.8 345.6 
L 460.8 0 
L 0 0 
z
" style="fill:#ffffff;"/>
  </g>
  <g id="axes_1">
   <g id="patch_2">
    <path d="M 57.6 307.584 
L 414.72 307.584 
L 414.72 41.472 
L 57.6 41.472 
z
" style="fill:#ffffff;"/>
   </g>
   <g id="PolyCollection_1">
    <path clip-path="url(#p6de67c13f4)" d="M 57.6 306.813836 
L 57.6 301.240477 
L 58.1952 301.240477 
L 58.7904 301.240477 
L 59.3856 301.240477 
L 59.9808 301.240477 
L 60.576 301.240477 
L 61.1712 302.451054 
L 61.7664 301.240477 
L 62.3616 299.887892 
L 62.9568 298.463125 
L 63.552 297.020468 
L 64.1472 295.692604 
L 64.7424 294.233301 
L 65.3376 292.62117 
L 65.9328 290.893314 
L 66.528 288.71511 
L 67.1232 287.100805 
L 67.7184 285.850062 
L 68.3136 284.131128 
L 68.9088 283.032242 
L 69.504 281.0355 
L 70.0992 279.938302 
L 70.6944 278.430757 
L 71.2896 276.972624 
L 71.8848 275.657192 
L 72.48 274.241237 
L 73.0752 272.724727 
L 73.6704 271.522017 
L 74.2656 270.189717 
L 74.8608 268.770461 
L 75.456 268.061083 
L 76.0512 265.848115 
L 76.6464 265.921613 
L 77.2416 266.305699 
L 77.8368 264.993666 
L 78.432 265.029777 
L 79.0272 263.286587 
L 79.6224 262.537545 
L 80.2176 261.874659 
L 80.8128 260.510227 
L 81.408 260.374456 
L 82.0032 262.900431 
L 82.5984 261.474089 
L 83.1936 257.721786 
L 83.7888 256.626454 
L 84.384 256.67294 
L 84.9792 260.3879 
L 85.5744 260.574748 
L 86.1696 258.627418 
L 86.7648 257.607391 
L 87.36 259.470854 
L 87.9552 256.817742 
L 88.5504 258.987729 
L 89.1456 265.336995 
L 89.7408 266.529978 
L 90.336 263.611986 
L 90.9312 262.283755 
L 91.5264 262.026253 
L 92.1216 268.012765 
L 92.7168 267.625279 
L 93.312 264.864337 
L 93.9072 262.505856 
L 94.5024 256.339386 
L 95.0976 253.29605 
L 95.6928 252.471148 
L 96.288 253.926001 
L 96.8832 248.452753 
L 97.4784 250.976683 
L 98.0736 244.228123 
L 98.6688 244.213158 
L 99.264 241.741731 
L 99.8592 244.977892 
L 100.4544 248.765575 
L 101.0496 242.896987 
L 101.6448 240.131236 
L 102.24 238.835144 
L 102.8352 239.401028 
L 103.4304 233.65474 
L 104.0256 231.544996 
L 104.6208 229.745012 
L 105.216 227.034389 
L 105.8112 224.477566 
L 106.4064 222.028164 
L 107.0016 221.663591 
L 107.5968 219.648208 
L 108.192 223.427218 
L 108.7872 221.603426 
L 109.3824 221.566795 
L 109.9776 221.687013 
L 110.5728 224.124114 
L 111.168 224.27576 
L 111.7632 221.461426 
L 112.3584 216.975952 
L 112.9536 221.744848 
L 113.5488 228.251821 
L 114.144 222.291723 
L 114.7392 223.94929 
L 115.3344 219.618014 
L 115.9296 219.656625 
L 116.5248 219.693758 
L 117.12 227.026754 
L 117.7152 224.326352 
L 118.3104 231.59168 
L 118.9056 226.799703 
L 119.5008 223.869303 
L 120.096 219.696479 
L 120.6912 221.694995 
L 121.2864 226.924699 
L 121.8816 230.696567 
L 122.4768 229.08314 
L 123.072 224.925086 
L 123.6672 229.951507 
L 124.2624 229.972622 
L 124.8576 235.606903 
L 125.4528 232.528874 
L 126.048 233.882967 
L 126.6432 231.925694 
L 127.2384 233.73987 
L 127.8336 237.029267 
L 128.4288 239.852199 
L 129.024 236.278956 
L 129.6192 233.018021 
L 130.2144 230.746504 
L 130.8096 225.341541 
L 131.4048 227.832132 
L 132 233.501464 
L 132.5952 237.70619 
L 133.1904 236.072238 
L 133.7856 226.977126 
L 134.3808 221.704101 
L 134.976 224.64403 
L 135.5712 226.291562 
L 136.1664 223.980247 
L 136.7616 228.84677 
L 137.3568 227.132656 
L 137.952 225.980982 
L 138.5472 216.543837 
L 139.1424 208.854706 
L 139.7376 212.074748 
L 140.3328 220.646996 
L 140.928 217.776079 
L 141.5232 218.219477 
L 142.1184 224.287284 
L 142.7136 216.85278 
L 143.3088 219.101226 
L 143.904 220.047859 
L 144.4992 221.888018 
L 145.0944 232.446046 
L 145.6896 234.97791 
L 146.2848 231.301358 
L 146.88 231.979371 
L 147.4752 239.061381 
L 148.0704 238.356663 
L 148.6656 247.650196 
L 149.2608 244.406681 
L 149.856 246.964452 
L 150.4512 257.454382 
L 151.0464 255.05801 
L 151.6416 259.522928 
L 152.2368 253.547677 
L 152.832 254.512585 
L 153.4272 247.442526 
L 154.0224 242.923831 
L 154.6176 237.261327 
L 155.2128 242.931495 
L 155.808 243.702977 
L 156.4032 241.771765 
L 156.9984 237.386486 
L 157.5936 231.344463 
L 158.1888 235.841073 
L 158.784 233.600459 
L 159.3792 230.034925 
L 159.9744 229.699215 
L 160.5696 234.234992 
L 161.1648 238.654693 
L 161.76 231.892608 
L 162.3552 229.768274 
L 162.9504 233.658942 
L 163.5456 237.90212 
L 164.1408 235.357632 
L 164.736 243.35697 
L 165.3312 250.716329 
L 165.9264 255.027472 
L 166.5216 256.955428 
L 167.1168 253.148448 
L 167.712 253.950896 
L 168.3072 253.186015 
L 168.9024 248.309914 
L 169.4976 246.480111 
L 170.0928 254.293824 
L 170.688 246.330508 
L 171.2832 240.12 
L 171.8784 240.17712 
L 172.4736 234.004486 
L 173.0688 226.097364 
L 173.664 230.000561 
L 174.2592 223.723501 
L 174.8544 221.821038 
L 175.4496 212.81293 
L 176.0448 202.684042 
L 176.64 204.169103 
L 177.2352 201.17739 
L 177.8304 189.038656 
L 178.4256 186.926371 
L 179.0208 188.869805 
L 179.616 180.264768 
L 180.2112 179.078527 
L 180.8064 181.719617 
L 181.4016 184.69554 
L 181.9968 183.2541 
L 182.592 181.199476 
L 183.1872 184.403055 
L 183.7824 192.180783 
L 184.3776 190.863852 
L 184.9728 185.450353 
L 185.568 186.127866 
L 186.1632 181.906 
L 186.7584 178.141646 
L 187.3536 172.59942 
L 187.9488 171.588828 
L 188.544 167.871184 
L 189.1392 164.415311 
L 189.7344 156.198498 
L 190.3296 154.937955 
L 190.9248 159.282112 
L 191.52 159.07243 
L 192.1152 163.20579 
L 192.7104 166.277941 
L 193.3056 170.849523 
L 193.9008 171.187122 
L 194.496 174.174189 
L 195.0912 172.703366 
L 195.6864 174.251251 
L 196.2816 172.911154 
L 196.8768 169.982772 
L 197.472 166.908731 
L 198.0672 165.642123 
L 198.6624 162.140667 
L 199.2576 157.598381 
L 199.8528 155.012466 
L 200.448 151.488792 
L 201.0432 153.806492 
L 201.6384 155.23823 
L 202.2336 153.138062 
L 202.8288 153.152603 
L 203.424 153.807853 
L 204.0192 154.073596 
L 204.6144 153.643963 
L 205.2096 156.414546 
L 205.8048 155.99375 
L 206.4 154.348389 
L 206.9952 153.352168 
L 207.5904 152.433475 
L 208.1856 153.914731 
L 208.7808 151.932862 
L 209.376 149.743856 
L 209.9712 147.345866 
L 210.5664 146.71518 
L 211.1616 145.64697 
L 211.7568 144.447954 
L 212.352 146.715629 
L 212.9472 143.445434 
L 213.5424 143.854139 
L 214.1376 142.914508 
L 214.7328 144.232871 
L 215.328 145.467422 
L 215.9232 146.079131 
L 216.5184 145.648916 
L 217.1136 143.375678 
L 217.7088 144.854078 
L 218.304 143.561047 
L 218.8992 143.341504 
L 219.4944 143.685492 
L 220.0896 142.570501 
L 220.6848 140.613725 
L 221.28 140.40337 
L 221.8752 140.120705 
L 222.4704 141.517923 
L 223.0656 143.462873 
L 223.6608 142.944377 
L 224.256 144.494016 
L 224.8512 145.428735 
L 225.4464 144.575004 
L 226.0416 143.016848 
L 226.6368 142.316385 
L 227.232 138.48057 
L 227.8272 138.821894 
L 228.4224 137.564968 
L 229.0176 134.818357 
L 229.6128 132.592342 
L 230.208 129.214911 
L 230.8032 129.794259 
L 231.3984 131.405812 
L 231.9936 130.854188 
L 232.5888 131.681168 
L 233.184 132.427855 
L 233.7792 131.607478 
L 234.3744 126.572942 
L 234.9696 126.143772 
L 235.5648 126.744603 
L 236.16 127.70573 
L 236.7552 127.203206 
L 237.3504 121.744512 
L 237.9456 121.99043 
L 238.5408 120.907375 
L 239.136 124.104381 
L 239.7312 122.031876 
L 240.3264 124.35646 
L 240.9216 123.972044 
L 241.5168 122.941811 
L 242.112 121.270603 
L 242.7072 119.643591 
L 243.3024 120.629386 
L 243.8976 120.002797 
L 244.4928 119.155617 
L 245.088 119.691988 
L 245.6832 121.248408 
L 246.2784 119.580575 
L 246.8736 120.956797 
L 247.4688 122.497731 
L 248.064 121.855182 
L 248.6592 120.799468 
L 249.2544 120.547031 
L 249.8496 121.560953 
L 250.4448 123.280306 
L 251.04 121.018 
L 251.6352 119.928728 
L 252.2304 121.399025 
L 252.8256 119.699235 
L 253.4208 117.307488 
L 254.016 117.173878 
L 254.6112 117.693248 
L 255.2064 116.802894 
L 255.8016 118.802449 
L 256.3968 115.658993 
L 256.992 115.068782 
L 257.5872 113.238252 
L 258.1824 112.398996 
L 258.7776 110.363583 
L 259.3728 112.504089 
L 259.968 112.539571 
L 260.5632 111.52499 
L 261.1584 111.835925 
L 261.7536 107.756837 
L 262.3488 111.726191 
L 262.944 113.014497 
L 263.5392 115.908172 
L 264.1344 114.914608 
L 264.7296 116.022362 
L 265.3248 115.95315 
L 265.92 116.22998 
L 266.5152 119.345876 
L 267.1104 118.123442 
L 267.7056 119.29071 
L 268.3008 115.621691 
L 268.896 112.080052 
L 269.4912 111.454669 
L 270.0864 112.042407 
L 270.6816 115.992469 
L 271.2768 117.559512 
L 271.872 118.231474 
L 272.4672 115.012079 
L 273.0624 114.008383 
L 273.6576 112.340609 
L 274.2528 112.237768 
L 274.848 112.706197 
L 275.4432 112.571583 
L 276.0384 112.998694 
L 276.6336 110.109105 
L 277.2288 106.428839 
L 277.824 103.185599 
L 278.4192 105.251814 
L 279.0144 106.751442 
L 279.6096 105.777695 
L 280.2048 104.959361 
L 280.8 106.377115 
L 281.3952 102.894608 
L 281.9904 103.137323 
L 282.5856 102.743594 
L 283.1808 102.770522 
L 283.776 102.305167 
L 284.3712 103.82891 
L 284.9664 104.946445 
L 285.5616 108.60418 
L 286.1568 107.71318 
L 286.752 109.742118 
L 287.3472 111.684991 
L 287.9424 112.443825 
L 288.5376 111.912956 
L 289.1328 110.144943 
L 289.728 114.639675 
L 290.3232 112.29081 
L 290.9184 111.267436 
L 291.5136 110.725132 
L 292.1088 112.836939 
L 292.704 109.733722 
L 293.2992 112.716408 
L 293.8944 110.884453 
L 294.4896 111.225589 
L 295.0848 114.577602 
L 295.68 111.134224 
L 296.2752 107.922755 
L 296.8704 110.039659 
L 297.4656 109.816395 
L 298.0608 112.330066 
L 298.656 112.898909 
L 299.2512 110.391569 
L 299.8464 110.820615 
L 300.4416 111.986439 
L 301.0368 109.231196 
L 301.632 111.726894 
L 302.2272 113.727125 
L 302.8224 115.096499 
L 303.4176 114.362163 
L 304.0128 112.814966 
L 304.608 114.223836 
L 305.2032 114.611306 
L 305.7984 121.183554 
L 306.3936 119.129634 
L 306.9888 122.736425 
L 307.584 124.159599 
L 308.1792 125.289806 
L 308.7744 118.65552 
L 309.3696 117.087744 
L 309.9648 121.098885 
L 310.56 122.717409 
L 311.1552 120.492951 
L 311.7504 114.529861 
L 312.3456 116.533381 
L 312.9408 113.065101 
L 313.536 109.972578 
L 314.1312 112.11594 
L 314.7264 119.470889 
L 315.3216 118.975625 
L 315.9168 115.7044 
L 316.512 114.222964 
L 317.1072 119.433872 
L 317.7024 120.598709 
L 318.2976 122.695086 
L 318.8928 125.008481 
L 319.488 126.625716 
L 320.0832 122.282924 
L 320.6784 117.30386 
L 321.2736 118.483892 
L 321.8688 114.605881 
L 322.464 115.052866 
L 323.0592 108.877961 
L 323.6544 108.407197 
L 324.2496 103.845828 
L 324.8448 102.506795 
L 325.44 106.758459 
L 326.0352 108.892253 
L 326.6304 107.705921 
L 327.2256 106.776041 
L 327.8208 108.901246 
L 328.416 106.881497 
L 329.0112 110.338112 
L 329.6064 109.009165 
L 330.2016 112.882457 
L 330.7968 112.387741 
L 331.392 110.736962 
L 331.9872 106.592056 
L 332.5824 113.001814 
L 333.1776 115.351586 
L 333.7728 115.596157 
L 334.368 113.275486 
L 334.9632 112.162438 
L 335.5584 110.974881 
L 336.1536 112.070574 
L 336.7488 114.028926 
L 337.344 109.697204 
L 337.9392 114.377799 
L 338.5344 108.791967 
L 339.1296 107.347505 
L 339.7248 107.438023 
L 340.32 108.39022 
L 340.9152 110.352439 
L 341.5104 110.264371 
L 342.1056 109.200702 
L 342.7008 106.573687 
L 343.296 107.87922 
L 343.8912 105.714842 
L 344.4864 105.193511 
L 345.0816 104.806817 
L 345.6768 102.60447 
L 346.272 102.38408 
L 346.8672 98.96512 
L 347.4624 99.357979 
L 348.0576 96.156447 
L 348.6528 97.466246 
L 349.248 95.789681 
L 349.8432 95.373075 
L 350.4384 96.185718 
L 351.0336 96.025446 
L 351.6288 97.997595 
L 352.224 98.25278 
L 352.8192 97.198842 
L 353.4144 98.571494 
L 354.0096 98.590066 
L 354.6048 98.721134 
L 355.2 100.914968 
L 355.7952 100.138136 
L 356.3904 98.679773 
L 356.9856 102.158381 
L 357.5808 103.486759 
L 358.176 109.500059 
L 358.7712 120.738959 
L 359.3664 121.809331 
L 359.9616 119.501238 
L 360.5568 118.640123 
L 361.152 116.1355 
L 361.7472 122.477936 
L 362.3424 122.202332 
L 362.9376 121.809354 
L 363.5328 119.536314 
L 364.128 114.156416 
L 364.7232 105.443795 
L 365.3184 100.962051 
L 365.9136 100.920871 
L 366.5088 99.35209 
L 367.104 102.918241 
L 367.6992 96.946292 
L 368.2944 96.910932 
L 368.8896 94.736551 
L 369.4848 100.425847 
L 370.08 100.608147 
L 370.6752 98.740495 
L 371.2704 102.199243 
L 371.8656 104.313984 
L 372.4608 103.845969 
L 373.056 106.044313 
L 373.6512 108.168681 
L 374.2464 108.056534 
L 374.8416 108.771129 
L 375.4368 100.674234 
L 376.032 98.855266 
L 376.6272 99.563789 
L 377.2224 100.002458 
L 377.8176 99.842667 
L 378.4128 102.210648 
L 379.008 98.348336 
L 379.6032 93.593377 
L 380.1984 95.189826 
L 380.7936 92.273943 
L 381.3888 91.976279 
L 381.984 93.835544 
L 382.5792 92.02115 
L 383.1744 90.198945 
L 383.7696 94.43332 
L 384.3648 97.241742 
L 384.96 98.211576 
L 385.5552 102.521376 
L 386.1504 104.997075 
L 386.7456 111.160849 
L 387.3408 117.37087 
L 387.936 117.025297 
L 388.5312 119.831171 
L 389.1264 121.229169 
L 389.7216 118.450346 
L 390.3168 115.704101 
L 390.912 114.109773 
L 391.5072 112.640002 
L 392.1024 108.368797 
L 392.6976 102.702129 
L 393.2928 103.201418 
L 393.888 103.420599 
L 394.4832 102.900148 
L 395.0784 102.279542 
L 395.6736 100.380935 
L 396.2688 100.415041 
L 396.864 97.991659 
L 397.4592 98.258622 
L 398.0544 101.122041 
L 398.6496 101.831705 
L 399.2448 94.77241 
L 399.84 96.913647 
L 400.4352 95.054637 
L 401.0304 95.317053 
L 401.6256 95.301006 
L 402.2208 93.292391 
L 402.816 97.226301 
L 403.4112 94.617854 
L 404.0064 92.263199 
L 404.6016 92.762616 
L 405.1968 93.385265 
L 405.792 90.246125 
L 406.3872 91.046759 
L 406.9824 90.705949 
L 407.5776 91.638035 
L 408.1728 91.669746 
L 408.768 88.374345 
L 409.3632 91.236585 
L 409.9584 89.729467 
L 410.5536 90.346127 
L 411.1488 90.346127 
L 411.744 90.346127 
L 412.3392 90.346127 
L 412.9344 90.346127 
L 413.5296 90.346127 
L 414.1248 90.346127 
L 414.1248 136.818216 
L 414.1248 136.818216 
L 413.5296 136.818216 
L 412.9344 136.818216 
L 412.3392 136.818216 
L 411.744 136.818216 
L 411.1488 136.818216 
L 410.5536 136.818216 
L 409.9584 133.682333 
L 409.3632 137.770877 
L 408.768 135.974865 
L 408.1728 136.111888 
L 407.5776 127.30403 
L 406.9824 125.712895 
L 406.3872 126.417595 
L 405.792 122.414669 
L 405.1968 132.539365 
L 404.6016 125.890862 
L 404.0064 135.578305 
L 403.4112 131.193535 
L 402.816 133.092218 
L 402.2208 134.823559 
L 401.6256 141.173322 
L 401.0304 144.207421 
L 400.4352 146.661014 
L 399.84 146.157971 
L 399.2448 137.219691 
L 398.6496 141.697686 
L 398.0544 131.279805 
L 397.4592 133.035436 
L 396.864 132.967312 
L 396.2688 131.186216 
L 395.6736 121.508848 
L 395.0784 123.974879 
L 394.4832 126.076392 
L 393.888 140.056222 
L 393.2928 146.269246 
L 392.6976 148.238475 
L 392.1024 161.386865 
L 391.5072 165.459362 
L 390.912 166.318524 
L 390.3168 167.41058 
L 389.7216 182.557229 
L 389.1264 181.970951 
L 388.5312 186.695552 
L 387.936 181.011155 
L 387.3408 175.824275 
L 386.7456 175.312934 
L 386.1504 174.151044 
L 385.5552 169.771558 
L 384.96 174.920732 
L 384.3648 182.826266 
L 383.7696 169.504237 
L 383.1744 164.070804 
L 382.5792 161.538291 
L 381.984 161.034463 
L 381.3888 158.333685 
L 380.7936 152.764789 
L 380.1984 144.254225 
L 379.6032 145.526278 
L 379.008 141.477696 
L 378.4128 141.01333 
L 377.8176 146.751645 
L 377.2224 151.016077 
L 376.6272 145.737616 
L 376.032 136.279753 
L 375.4368 137.445571 
L 374.8416 148.906023 
L 374.2464 147.547633 
L 373.6512 144.384254 
L 373.056 148.735502 
L 372.4608 145.402481 
L 371.8656 138.691787 
L 371.2704 137.99727 
L 370.6752 135.231738 
L 370.08 139.557954 
L 369.4848 139.641186 
L 368.8896 134.052834 
L 368.2944 134.694511 
L 367.6992 138.655351 
L 367.104 137.100131 
L 366.5088 134.998166 
L 365.9136 147.567643 
L 365.3184 147.556385 
L 364.7232 155.859234 
L 364.128 166.84805 
L 363.5328 172.887573 
L 362.9376 172.62719 
L 362.3424 175.245561 
L 361.7472 170.132507 
L 361.152 166.817532 
L 360.5568 175.795536 
L 359.9616 169.177146 
L 359.3664 168.799873 
L 358.7712 163.454748 
L 358.176 149.689719 
L 357.5808 146.025339 
L 356.9856 143.302647 
L 356.3904 141.737476 
L 355.7952 142.268676 
L 355.2 146.953788 
L 354.6048 140.144266 
L 354.0096 133.23883 
L 353.4144 133.838839 
L 352.8192 131.555332 
L 352.224 132.416146 
L 351.6288 130.904384 
L 351.0336 127.324158 
L 350.4384 127.218531 
L 349.8432 130.14546 
L 349.248 125.03772 
L 348.6528 119.853012 
L 348.0576 121.094438 
L 347.4624 125.425953 
L 346.8672 126.830233 
L 346.272 128.160293 
L 345.6768 129.538319 
L 345.0816 131.708977 
L 344.4864 128.132077 
L 343.8912 125.290346 
L 343.296 132.064353 
L 342.7008 133.679013 
L 342.1056 134.256303 
L 341.5104 130.387858 
L 340.9152 128.215618 
L 340.32 128.153708 
L 339.7248 127.821068 
L 339.1296 144.667859 
L 338.5344 151.627001 
L 337.9392 160.499013 
L 337.344 155.570785 
L 336.7488 157.470885 
L 336.1536 156.260678 
L 335.5584 164.782915 
L 334.9632 165.881017 
L 334.368 171.189939 
L 333.7728 173.496118 
L 333.1776 158.008981 
L 332.5824 153.467389 
L 331.9872 144.404982 
L 331.392 142.332166 
L 330.7968 143.102444 
L 330.2016 147.13733 
L 329.6064 139.280713 
L 329.0112 138.984483 
L 328.416 134.699141 
L 327.8208 135.012339 
L 327.2256 132.683509 
L 326.6304 133.691647 
L 326.0352 144.508592 
L 325.44 161.644217 
L 324.8448 157.288091 
L 324.2496 154.549974 
L 323.6544 163.813367 
L 323.0592 165.532471 
L 322.464 176.834749 
L 321.8688 176.769783 
L 321.2736 179.3411 
L 320.6784 178.854818 
L 320.0832 173.399263 
L 319.488 169.453927 
L 318.8928 168.074615 
L 318.2976 173.586954 
L 317.7024 163.228605 
L 317.1072 163.636777 
L 316.512 152.224885 
L 315.9168 151.866381 
L 315.3216 159.429792 
L 314.7264 159.648835 
L 314.1312 154.660388 
L 313.536 143.956916 
L 312.9408 156.435608 
L 312.3456 152.294897 
L 311.7504 149.316949 
L 311.1552 154.400019 
L 310.56 155.110504 
L 309.9648 153.46527 
L 309.3696 146.286691 
L 308.7744 145.012494 
L 308.1792 150.94343 
L 307.584 152.430201 
L 306.9888 141.677394 
L 306.3936 151.167084 
L 305.7984 157.039434 
L 305.2032 148.612927 
L 304.608 151.089319 
L 304.0128 151.357147 
L 303.4176 156.21279 
L 302.8224 164.742554 
L 302.2272 162.156069 
L 301.632 157.544269 
L 301.0368 170.824245 
L 300.4416 160.69115 
L 299.8464 156.8343 
L 299.2512 160.21282 
L 298.656 161.026326 
L 298.0608 162.285336 
L 297.4656 155.872512 
L 296.8704 159.535658 
L 296.2752 161.305132 
L 295.68 163.194588 
L 295.0848 150.42436 
L 294.4896 147.810966 
L 293.8944 145.173429 
L 293.2992 143.757053 
L 292.704 140.234308 
L 292.1088 140.109886 
L 291.5136 144.137602 
L 290.9184 146.441262 
L 290.3232 143.175432 
L 289.728 145.731807 
L 289.1328 151.765443 
L 288.5376 158.83538 
L 287.9424 158.99712 
L 287.3472 164.532555 
L 286.752 165.792163 
L 286.1568 163.976043 
L 285.5616 158.410186 
L 284.9664 151.50696 
L 284.3712 152.374578 
L 283.776 154.810048 
L 283.1808 150.998448 
L 282.5856 145.761888 
L 281.9904 147.167448 
L 281.3952 141.478459 
L 280.8 140.056112 
L 280.2048 148.375396 
L 279.6096 151.267238 
L 279.0144 151.283015 
L 278.4192 155.408598 
L 277.824 148.666824 
L 277.2288 146.887481 
L 276.6336 149.528928 
L 276.0384 154.480706 
L 275.4432 155.656321 
L 274.848 155.432205 
L 274.2528 146.835069 
L 273.6576 154.705846 
L 273.0624 149.480135 
L 272.4672 144.659069 
L 271.872 150.730342 
L 271.2768 150.406862 
L 270.6816 155.417806 
L 270.0864 148.678882 
L 269.4912 145.645205 
L 268.896 146.976347 
L 268.3008 150.159256 
L 267.7056 144.952284 
L 267.1104 143.903042 
L 266.5152 143.410243 
L 265.92 140.112311 
L 265.3248 138.281756 
L 264.7296 131.812562 
L 264.1344 133.179336 
L 263.5392 138.362755 
L 262.944 137.83269 
L 262.3488 142.45429 
L 261.7536 140.061681 
L 261.1584 141.515317 
L 260.5632 151.332972 
L 259.968 151.751486 
L 259.3728 155.745344 
L 258.7776 157.975105 
L 258.1824 157.43508 
L 257.5872 156.148475 
L 256.992 154.44544 
L 256.3968 146.828776 
L 255.8016 148.195214 
L 255.2064 149.396224 
L 254.6112 150.670987 
L 254.016 149.187579 
L 253.4208 146.165696 
L 252.8256 143.701554 
L 252.2304 146.050083 
L 251.6352 143.913396 
L 251.04 144.754423 
L 250.4448 151.815895 
L 249.8496 148.725273 
L 249.2544 147.273939 
L 248.6592 139.012951 
L 248.064 141.204766 
L 247.4688 141.290005 
L 246.8736 141.314953 
L 246.2784 144.206156 
L 245.6832 148.827293 
L 245.088 147.696811 
L 244.4928 144.73003 
L 243.8976 150.320518 
L 243.3024 149.161817 
L 242.7072 146.01857 
L 242.112 148.827766 
L 241.5168 153.273749 
L 240.9216 154.335206 
L 240.3264 157.268527 
L 239.7312 152.360321 
L 239.136 164.577196 
L 238.5408 162.706928 
L 237.9456 161.153156 
L 237.3504 162.230273 
L 236.7552 169.558849 
L 236.16 167.590105 
L 235.5648 165.740974 
L 234.9696 165.392575 
L 234.3744 161.498586 
L 233.7792 164.421095 
L 233.184 157.548782 
L 232.5888 158.023995 
L 231.9936 156.029628 
L 231.3984 157.056753 
L 230.8032 156.639642 
L 230.208 155.530584 
L 229.6128 159.179963 
L 229.0176 161.158666 
L 228.4224 163.085163 
L 227.8272 168.558876 
L 227.232 165.09312 
L 226.6368 164.423362 
L 226.0416 164.681133 
L 225.4464 164.045489 
L 224.8512 162.280481 
L 224.256 164.401892 
L 223.6608 161.883687 
L 223.0656 161.525913 
L 222.4704 159.212605 
L 221.8752 154.188863 
L 221.28 155.359616 
L 220.6848 155.968682 
L 220.0896 159.900059 
L 219.4944 167.225134 
L 218.8992 166.73924 
L 218.304 166.388177 
L 217.7088 169.20999 
L 217.1136 171.121425 
L 216.5184 171.722242 
L 215.9232 173.249731 
L 215.328 173.265596 
L 214.7328 175.849953 
L 214.1376 174.67877 
L 213.5424 170.838273 
L 212.9472 171.697128 
L 212.352 171.478151 
L 211.7568 172.854669 
L 211.1616 169.912218 
L 210.5664 173.011045 
L 209.9712 172.924535 
L 209.376 173.425309 
L 208.7808 172.749673 
L 208.1856 172.104714 
L 207.5904 173.633045 
L 206.9952 172.712405 
L 206.4 173.65106 
L 205.8048 173.254333 
L 205.2096 175.740397 
L 204.6144 174.543666 
L 204.0192 176.349827 
L 203.424 179.968159 
L 202.8288 182.500609 
L 202.2336 184.383338 
L 201.6384 185.19692 
L 201.0432 189.515811 
L 200.448 191.343778 
L 199.8528 190.380647 
L 199.2576 193.307375 
L 198.6624 196.186559 
L 198.0672 203.518749 
L 197.472 203.636146 
L 196.8768 204.675774 
L 196.2816 207.177745 
L 195.6864 206.951701 
L 195.0912 206.273227 
L 194.496 207.970882 
L 193.9008 211.171304 
L 193.3056 214.565801 
L 192.7104 213.453767 
L 192.1152 206.826373 
L 191.52 205.894649 
L 190.9248 207.326714 
L 190.3296 207.42871 
L 189.7344 211.309636 
L 189.1392 215.07474 
L 188.544 215.36925 
L 187.9488 213.936209 
L 187.3536 211.270933 
L 186.7584 213.949724 
L 186.1632 217.320155 
L 185.568 217.920095 
L 184.9728 217.788419 
L 184.3776 221.052076 
L 183.7824 218.637466 
L 183.1872 216.070203 
L 182.592 216.924278 
L 181.9968 220.80888 
L 181.4016 221.314043 
L 180.8064 229.038908 
L 180.2112 237.195001 
L 179.616 248.373881 
L 179.0208 257.340822 
L 178.4256 263.625894 
L 177.8304 272.372346 
L 177.2352 281.367513 
L 176.64 289.912665 
L 176.0448 296.156456 
L 175.4496 305.766876 
L 174.8544 305.704165 
L 174.2592 305.741556 
L 173.664 305.676478 
L 173.0688 305.713156 
L 172.4736 305.687439 
L 171.8784 305.681103 
L 171.2832 305.800936 
L 170.688 305.786056 
L 170.0928 305.923673 
L 169.4976 305.872392 
L 168.9024 305.886 
L 168.3072 305.914992 
L 167.712 305.938452 
L 167.1168 305.890195 
L 166.5216 305.859976 
L 165.9264 306.010796 
L 165.3312 305.851684 
L 164.736 305.833423 
L 164.1408 305.792767 
L 163.5456 305.785429 
L 162.9504 305.895805 
L 162.3552 305.951654 
L 161.76 305.994444 
L 161.1648 306.069383 
L 160.5696 306.083809 
L 159.9744 306.056012 
L 159.3792 306.059562 
L 158.784 306.037008 
L 158.1888 306.068273 
L 157.5936 306.269427 
L 156.9984 306.272079 
L 156.4032 306.181043 
L 155.808 306.096846 
L 155.2128 306.056526 
L 154.6176 306.141534 
L 154.0224 306.146402 
L 153.4272 306.171746 
L 152.832 306.137998 
L 152.2368 305.902991 
L 151.6416 305.759242 
L 151.0464 305.706525 
L 150.4512 305.695373 
L 149.856 305.67247 
L 149.2608 305.652098 
L 148.6656 305.564725 
L 148.0704 305.612841 
L 147.4752 305.486438 
L 146.88 305.623929 
L 146.2848 305.829255 
L 145.6896 305.775082 
L 145.0944 305.853476 
L 144.4992 305.837852 
L 143.904 305.875108 
L 143.3088 305.91006 
L 142.7136 305.717461 
L 142.1184 305.628047 
L 141.5232 305.723958 
L 140.928 305.342214 
L 140.3328 305.349443 
L 139.7376 305.358706 
L 139.1424 305.330605 
L 138.5472 305.364028 
L 137.952 305.41182 
L 137.3568 305.464791 
L 136.7616 305.685165 
L 136.1664 305.760641 
L 135.5712 305.604855 
L 134.976 305.850438 
L 134.3808 305.907232 
L 133.7856 305.847282 
L 133.1904 305.86901 
L 132.5952 305.839918 
L 132 305.794787 
L 131.4048 305.725006 
L 130.8096 305.690875 
L 130.2144 305.712234 
L 129.6192 305.87255 
L 129.024 305.911136 
L 128.4288 305.938668 
L 127.8336 306.025029 
L 127.2384 305.976136 
L 126.6432 306.072807 
L 126.048 306.126663 
L 125.4528 306.158755 
L 124.8576 306.122461 
L 124.2624 306.107712 
L 123.6672 306.052797 
L 123.072 306.032024 
L 122.4768 305.95943 
L 121.8816 305.966762 
L 121.2864 306.023559 
L 120.6912 306.007327 
L 120.096 306.032037 
L 119.5008 306.132989 
L 118.9056 306.217156 
L 118.3104 306.277346 
L 117.7152 306.335932 
L 117.12 306.385534 
L 116.5248 306.324332 
L 115.9296 306.331383 
L 115.3344 306.332769 
L 114.7392 306.35442 
L 114.144 306.299418 
L 113.5488 306.186748 
L 112.9536 306.161303 
L 112.3584 306.085167 
L 111.7632 306.072198 
L 111.168 305.996799 
L 110.5728 306.084153 
L 109.9776 306.089489 
L 109.3824 306.127391 
L 108.7872 306.092738 
L 108.192 306.129701 
L 107.5968 306.130197 
L 107.0016 306.160268 
L 106.4064 306.214865 
L 105.8112 306.193381 
L 105.216 306.221963 
L 104.6208 306.195539 
L 104.0256 306.189054 
L 103.4304 306.131911 
L 102.8352 306.139244 
L 102.24 306.167693 
L 101.6448 306.157381 
L 101.0496 306.167787 
L 100.4544 306.149979 
L 99.8592 306.240414 
L 99.264 306.274688 
L 98.6688 306.243604 
L 98.0736 306.267392 
L 97.4784 306.309817 
L 96.8832 306.274061 
L 96.288 306.228654 
L 95.6928 306.250141 
L 95.0976 306.247702 
L 94.5024 306.208244 
L 93.9072 306.202636 
L 93.312 306.252366 
L 92.7168 306.329226 
L 92.1216 306.345219 
L 91.5264 306.367718 
L 90.9312 306.39437 
L 90.336 306.483453 
L 89.7408 306.469121 
L 89.1456 306.512247 
L 88.5504 306.506433 
L 87.9552 306.419807 
L 87.36 306.356556 
L 86.7648 306.302416 
L 86.1696 306.264724 
L 85.5744 306.20866 
L 84.9792 306.201563 
L 84.384 306.205165 
L 83.7888 306.21997 
L 83.1936 306.204225 
L 82.5984 306.228568 
L 82.0032 306.32969 
L 81.408 306.369733 
L 80.8128 306.276294 
L 80.2176 306.349273 
L 79.6224 306.417909 
L 79.0272 306.440231 
L 78.432 306.441357 
L 77.8368 306.461738 
L 77.2416 306.492759 
L 76.6464 306.571753 
L 76.0512 306.530538 
L 75.456 306.569138 
L 74.8608 306.742975 
L 74.2656 306.720046 
L 73.6704 306.702143 
L 73.0752 306.777015 
L 72.48 306.80394 
L 71.8848 306.734862 
L 71.2896 306.663788 
L 70.6944 306.470201 
L 70.0992 306.467475 
L 69.504 306.454409 
L 68.9088 306.42541 
L 68.3136 306.473953 
L 67.7184 306.500476 
L 67.1232 306.475168 
L 66.528 306.438671 
L 65.9328 306.562664 
L 65.3376 306.57164 
L 64.7424 306.791989 
L 64.1472 306.872423 
L 63.552 306.892298 
L 62.9568 306.889224 
L 62.3616 306.812599 
L 61.7664 306.813836 
L 61.1712 306.733482 
L 60.576 306.813836 
L 59.9808 306.813836 
L 59.3856 306.813836 
L 58.7904 306.813836 
L 58.1952 306.813836 
L 57.6 306.813836 
z
" style="fill:#0000ff;fill-opacity:0.5;"/>
   </g>
   <g id="matplotlib.axis_1">
    <g id="xtick_1">
     <g id="line2d_1">
      <path clip-path="url(#p6de67c13f4)" d="M 57.6 307.584 
L 57.6 41.472 
" style="fill:none;stroke:#b0b0b0;stroke-linecap:square;stroke-width:0.8;"/>
     </g>
     <g id="line2d_2">
      <defs>
       <path d="M 0 0 
L 0 3.5 
" id="m9bbcdca24f" style="stroke:#000000;stroke-width:0.8;"/>
      </defs>
      <g>
       <use style="stroke:#000000;stroke-width:0.8;" x="57.6" xlink:href="#m9bbcdca24f" y="307.584"/>
      </g>
     </g>
     <g id="text_1">
      <!-- 0 -->
      <defs>
       <path d="M 31.78125 66.40625 
Q 24.171875 66.40625 20.328125 58.90625 
Q 16.5 51.421875 16.5 36.375 
Q 16.5 21.390625 20.328125 13.890625 
Q 24.171875 6.390625 31.78125 6.390625 
Q 39.453125 6.390625 43.28125 13.890625 
Q 47.125 21.390625 47.125 36.375 
Q 47.125 51.421875 43.28125 58.90625 
Q 39.453125 66.40625 31.78125 66.40625 
z
M 31.78125 74.21875 
Q 44.046875 74.21875 50.515625 64.515625 
Q 56.984375 54.828125 56.984375 36.375 
Q 56.984375 17.96875 50.515625 8.265625 
Q 44.046875 -1.421875 31.78125 -1.421875 
Q 19.53125 -1.421875 13.0625 8.265625 
Q 6.59375 17.96875 6.59375 36.375 
Q 6.59375 54.828125 13.0625 64.515625 
Q 19.53125 74.21875 31.78125 74.21875 
z
" id="DejaVuSans-30"/>
      </defs>
      <g transform="translate(54.41875 322.182437)scale(0.1 -0.1)">
       <use xlink:href="#DejaVuSans-30"/>
      </g>
     </g>
    </g>
    <g id="xtick_2">
     <g id="line2d_3">
      <path clip-path="url(#p6de67c13f4)" d="M 117.12 307.584 
L 117.12 41.472 
" style="fill:none;stroke:#b0b0b0;stroke-linecap:square;stroke-width:0.8;"/>
     </g>
     <g id="line2d_4">
      <g>
       <use style="stroke:#000000;stroke-width:0.8;" x="117.12" xlink:href="#m9bbcdca24f" y="307.584"/>
      </g>
     </g>
     <g id="text_2">
      <!-- 100 -->
      <defs>
       <path d="M 12.40625 8.296875 
L 28.515625 8.296875 
L 28.515625 63.921875 
L 10.984375 60.40625 
L 10.984375 69.390625 
L 28.421875 72.90625 
L 38.28125 72.90625 
L 38.28125 8.296875 
L 54.390625 8.296875 
L 54.390625 0 
L 12.40625 0 
z
" id="DejaVuSans-31"/>
      </defs>
      <g transform="translate(107.57625 322.182437)scale(0.1 -0.1)">
       <use xlink:href="#DejaVuSans-31"/>
       <use x="63.623047" xlink:href="#DejaVuSans-30"/>
       <use x="127.246094" xlink:href="#DejaVuSans-30"/>
      </g>
     </g>
    </g>
    <g id="xtick_3">
     <g id="line2d_5">
      <path clip-path="url(#p6de67c13f4)" d="M 176.64 307.584 
L 176.64 41.472 
" style="fill:none;stroke:#b0b0b0;stroke-linecap:square;stroke-width:0.8;"/>
     </g>
     <g id="line2d_6">
      <g>
       <use style="stroke:#000000;stroke-width:0.8;" x="176.64" xlink:href="#m9bbcdca24f" y="307.584"/>
      </g>
     </g>
     <g id="text_3">
      <!-- 200 -->
      <defs>
       <path d="M 19.1875 8.296875 
L 53.609375 8.296875 
L 53.609375 0 
L 7.328125 0 
L 7.328125 8.296875 
Q 12.9375 14.109375 22.625 23.890625 
Q 32.328125 33.6875 34.8125 36.53125 
Q 39.546875 41.84375 41.421875 45.53125 
Q 43.3125 49.21875 43.3125 52.78125 
Q 43.3125 58.59375 39.234375 62.25 
Q 35.15625 65.921875 28.609375 65.921875 
Q 23.96875 65.921875 18.8125 64.3125 
Q 13.671875 62.703125 7.8125 59.421875 
L 7.8125 69.390625 
Q 13.765625 71.78125 18.9375 73 
Q 24.125 74.21875 28.421875 74.21875 
Q 39.75 74.21875 46.484375 68.546875 
Q 53.21875 62.890625 53.21875 53.421875 
Q 53.21875 48.921875 51.53125 44.890625 
Q 49.859375 40.875 45.40625 35.40625 
Q 44.1875 33.984375 37.640625 27.21875 
Q 31.109375 20.453125 19.1875 8.296875 
z
" id="DejaVuSans-32"/>
      </defs>
      <g transform="translate(167.09625 322.182437)scale(0.1 -0.1)">
       <use xlink:href="#DejaVuSans-32"/>
       <use x="63.623047" xlink:href="#DejaVuSans-30"/>
       <use x="127.246094" xlink:href="#DejaVuSans-30"/>
      </g>
     </g>
    </g>
    <g id="xtick_4">
     <g id="line2d_7">
      <path clip-path="url(#p6de67c13f4)" d="M 236.16 307.584 
L 236.16 41.472 
" style="fill:none;stroke:#b0b0b0;stroke-linecap:square;stroke-width:0.8;"/>
     </g>
     <g id="line2d_8">
      <g>
       <use style="stroke:#000000;stroke-width:0.8;" x="236.16" xlink:href="#m9bbcdca24f" y="307.584"/>
      </g>
     </g>
     <g id="text_4">
      <!-- 300 -->
      <defs>
       <path d="M 40.578125 39.3125 
Q 47.65625 37.796875 51.625 33 
Q 55.609375 28.21875 55.609375 21.1875 
Q 55.609375 10.40625 48.1875 4.484375 
Q 40.765625 -1.421875 27.09375 -1.421875 
Q 22.515625 -1.421875 17.65625 -0.515625 
Q 12.796875 0.390625 7.625 2.203125 
L 7.625 11.71875 
Q 11.71875 9.328125 16.59375 8.109375 
Q 21.484375 6.890625 26.8125 6.890625 
Q 36.078125 6.890625 40.9375 10.546875 
Q 45.796875 14.203125 45.796875 21.1875 
Q 45.796875 27.640625 41.28125 31.265625 
Q 36.765625 34.90625 28.71875 34.90625 
L 20.21875 34.90625 
L 20.21875 43.015625 
L 29.109375 43.015625 
Q 36.375 43.015625 40.234375 45.921875 
Q 44.09375 48.828125 44.09375 54.296875 
Q 44.09375 59.90625 40.109375 62.90625 
Q 36.140625 65.921875 28.71875 65.921875 
Q 24.65625 65.921875 20.015625 65.03125 
Q 15.375 64.15625 9.8125 62.3125 
L 9.8125 71.09375 
Q 15.4375 72.65625 20.34375 73.4375 
Q 25.25 74.21875 29.59375 74.21875 
Q 40.828125 74.21875 47.359375 69.109375 
Q 53.90625 64.015625 53.90625 55.328125 
Q 53.90625 49.265625 50.4375 45.09375 
Q 46.96875 40.921875 40.578125 39.3125 
z
" id="DejaVuSans-33"/>
      </defs>
      <g transform="translate(226.61625 322.182437)scale(0.1 -0.1)">
       <use xlink:href="#DejaVuSans-33"/>
       <use x="63.623047" xlink:href="#DejaVuSans-30"/>
       <use x="127.246094" xlink:href="#DejaVuSans-30"/>
      </g>
     </g>
    </g>
    <g id="xtick_5">
     <g id="line2d_9">
      <path clip-path="url(#p6de67c13f4)" d="M 295.68 307.584 
L 295.68 41.472 
" style="fill:none;stroke:#b0b0b0;stroke-linecap:square;stroke-width:0.8;"/>
     </g>
     <g id="line2d_10">
      <g>
       <use style="stroke:#000000;stroke-width:0.8;" x="295.68" xlink:href="#m9bbcdca24f" y="307.584"/>
      </g>
     </g>
     <g id="text_5">
      <!-- 400 -->
      <defs>
       <path d="M 37.796875 64.3125 
L 12.890625 25.390625 
L 37.796875 25.390625 
z
M 35.203125 72.90625 
L 47.609375 72.90625 
L 47.609375 25.390625 
L 58.015625 25.390625 
L 58.015625 17.1875 
L 47.609375 17.1875 
L 47.609375 0 
L 37.796875 0 
L 37.796875 17.1875 
L 4.890625 17.1875 
L 4.890625 26.703125 
z
" id="DejaVuSans-34"/>
      </defs>
      <g transform="translate(286.13625 322.182437)scale(0.1 -0.1)">
       <use xlink:href="#DejaVuSans-34"/>
       <use x="63.623047" xlink:href="#DejaVuSans-30"/>
       <use x="127.246094" xlink:href="#DejaVuSans-30"/>
      </g>
     </g>
    </g>
    <g id="xtick_6">
     <g id="line2d_11">
      <path clip-path="url(#p6de67c13f4)" d="M 355.2 307.584 
L 355.2 41.472 
" style="fill:none;stroke:#b0b0b0;stroke-linecap:square;stroke-width:0.8;"/>
     </g>
     <g id="line2d_12">
      <g>
       <use style="stroke:#000000;stroke-width:0.8;" x="355.2" xlink:href="#m9bbcdca24f" y="307.584"/>
      </g>
     </g>
     <g id="text_6">
      <!-- 500 -->
      <defs>
       <path d="M 10.796875 72.90625 
L 49.515625 72.90625 
L 49.515625 64.59375 
L 19.828125 64.59375 
L 19.828125 46.734375 
Q 21.96875 47.46875 24.109375 47.828125 
Q 26.265625 48.1875 28.421875 48.1875 
Q 40.625 48.1875 47.75 41.5 
Q 54.890625 34.8125 54.890625 23.390625 
Q 54.890625 11.625 47.5625 5.09375 
Q 40.234375 -1.421875 26.90625 -1.421875 
Q 22.3125 -1.421875 17.546875 -0.640625 
Q 12.796875 0.140625 7.71875 1.703125 
L 7.71875 11.625 
Q 12.109375 9.234375 16.796875 8.0625 
Q 21.484375 6.890625 26.703125 6.890625 
Q 35.15625 6.890625 40.078125 11.328125 
Q 45.015625 15.765625 45.015625 23.390625 
Q 45.015625 31 40.078125 35.4375 
Q 35.15625 39.890625 26.703125 39.890625 
Q 22.75 39.890625 18.8125 39.015625 
Q 14.890625 38.140625 10.796875 36.28125 
z
" id="DejaVuSans-35"/>
      </defs>
      <g transform="translate(345.65625 322.182437)scale(0.1 -0.1)">
       <use xlink:href="#DejaVuSans-35"/>
       <use x="63.623047" xlink:href="#DejaVuSans-30"/>
       <use x="127.246094" xlink:href="#DejaVuSans-30"/>
      </g>
     </g>
    </g>
    <g id="xtick_7">
     <g id="line2d_13">
      <path clip-path="url(#p6de67c13f4)" d="M 414.72 307.584 
L 414.72 41.472 
" style="fill:none;stroke:#b0b0b0;stroke-linecap:square;stroke-width:0.8;"/>
     </g>
     <g id="line2d_14">
      <g>
       <use style="stroke:#000000;stroke-width:0.8;" x="414.72" xlink:href="#m9bbcdca24f" y="307.584"/>
      </g>
     </g>
     <g id="text_7">
      <!-- 600 -->
      <defs>
       <path d="M 33.015625 40.375 
Q 26.375 40.375 22.484375 35.828125 
Q 18.609375 31.296875 18.609375 23.390625 
Q 18.609375 15.53125 22.484375 10.953125 
Q 26.375 6.390625 33.015625 6.390625 
Q 39.65625 6.390625 43.53125 10.953125 
Q 47.40625 15.53125 47.40625 23.390625 
Q 47.40625 31.296875 43.53125 35.828125 
Q 39.65625 40.375 33.015625 40.375 
z
M 52.59375 71.296875 
L 52.59375 62.3125 
Q 48.875 64.0625 45.09375 64.984375 
Q 41.3125 65.921875 37.59375 65.921875 
Q 27.828125 65.921875 22.671875 59.328125 
Q 17.53125 52.734375 16.796875 39.40625 
Q 19.671875 43.65625 24.015625 45.921875 
Q 28.375 48.1875 33.59375 48.1875 
Q 44.578125 48.1875 50.953125 41.515625 
Q 57.328125 34.859375 57.328125 23.390625 
Q 57.328125 12.15625 50.6875 5.359375 
Q 44.046875 -1.421875 33.015625 -1.421875 
Q 20.359375 -1.421875 13.671875 8.265625 
Q 6.984375 17.96875 6.984375 36.375 
Q 6.984375 53.65625 15.1875 63.9375 
Q 23.390625 74.21875 37.203125 74.21875 
Q 40.921875 74.21875 44.703125 73.484375 
Q 48.484375 72.75 52.59375 71.296875 
z
" id="DejaVuSans-36"/>
      </defs>
      <g transform="translate(405.17625 322.182437)scale(0.1 -0.1)">
       <use xlink:href="#DejaVuSans-36"/>
       <use x="63.623047" xlink:href="#DejaVuSans-30"/>
       <use x="127.246094" xlink:href="#DejaVuSans-30"/>
      </g>
     </g>
    </g>
    <g id="text_8">
     <!-- step -->
     <defs>
      <path d="M 44.28125 53.078125 
L 44.28125 44.578125 
Q 40.484375 46.53125 36.375 47.5 
Q 32.28125 48.484375 27.875 48.484375 
Q 21.1875 48.484375 17.84375 46.4375 
Q 14.5 44.390625 14.5 40.28125 
Q 14.5 37.15625 16.890625 35.375 
Q 19.28125 33.59375 26.515625 31.984375 
L 29.59375 31.296875 
Q 39.15625 29.25 43.1875 25.515625 
Q 47.21875 21.78125 47.21875 15.09375 
Q 47.21875 7.46875 41.1875 3.015625 
Q 35.15625 -1.421875 24.609375 -1.421875 
Q 20.21875 -1.421875 15.453125 -0.5625 
Q 10.6875 0.296875 5.421875 2 
L 5.421875 11.28125 
Q 10.40625 8.6875 15.234375 7.390625 
Q 20.0625 6.109375 24.8125 6.109375 
Q 31.15625 6.109375 34.5625 8.28125 
Q 37.984375 10.453125 37.984375 14.40625 
Q 37.984375 18.0625 35.515625 20.015625 
Q 33.0625 21.96875 24.703125 23.78125 
L 21.578125 24.515625 
Q 13.234375 26.265625 9.515625 29.90625 
Q 5.8125 33.546875 5.8125 39.890625 
Q 5.8125 47.609375 11.28125 51.796875 
Q 16.75 56 26.8125 56 
Q 31.78125 56 36.171875 55.265625 
Q 40.578125 54.546875 44.28125 53.078125 
z
" id="DejaVuSans-73"/>
      <path d="M 18.3125 70.21875 
L 18.3125 54.6875 
L 36.8125 54.6875 
L 36.8125 47.703125 
L 18.3125 47.703125 
L 18.3125 18.015625 
Q 18.3125 11.328125 20.140625 9.421875 
Q 21.96875 7.515625 27.59375 7.515625 
L 36.8125 7.515625 
L 36.8125 0 
L 27.59375 0 
Q 17.1875 0 13.234375 3.875 
Q 9.28125 7.765625 9.28125 18.015625 
L 9.28125 47.703125 
L 2.6875 47.703125 
L 2.6875 54.6875 
L 9.28125 54.6875 
L 9.28125 70.21875 
z
" id="DejaVuSans-74"/>
      <path d="M 56.203125 29.59375 
L 56.203125 25.203125 
L 14.890625 25.203125 
Q 15.484375 15.921875 20.484375 11.0625 
Q 25.484375 6.203125 34.421875 6.203125 
Q 39.59375 6.203125 44.453125 7.46875 
Q 49.3125 8.734375 54.109375 11.28125 
L 54.109375 2.78125 
Q 49.265625 0.734375 44.1875 -0.34375 
Q 39.109375 -1.421875 33.890625 -1.421875 
Q 20.796875 -1.421875 13.15625 6.1875 
Q 5.515625 13.8125 5.515625 26.8125 
Q 5.515625 40.234375 12.765625 48.109375 
Q 20.015625 56 32.328125 56 
Q 43.359375 56 49.78125 48.890625 
Q 56.203125 41.796875 56.203125 29.59375 
z
M 47.21875 32.234375 
Q 47.125 39.59375 43.09375 43.984375 
Q 39.0625 48.390625 32.421875 48.390625 
Q 24.90625 48.390625 20.390625 44.140625 
Q 15.875 39.890625 15.1875 32.171875 
z
" id="DejaVuSans-65"/>
      <path d="M 18.109375 8.203125 
L 18.109375 -20.796875 
L 9.078125 -20.796875 
L 9.078125 54.6875 
L 18.109375 54.6875 
L 18.109375 46.390625 
Q 20.953125 51.265625 25.265625 53.625 
Q 29.59375 56 35.59375 56 
Q 45.5625 56 51.78125 48.09375 
Q 58.015625 40.1875 58.015625 27.296875 
Q 58.015625 14.40625 51.78125 6.484375 
Q 45.5625 -1.421875 35.59375 -1.421875 
Q 29.59375 -1.421875 25.265625 0.953125 
Q 20.953125 3.328125 18.109375 8.203125 
z
M 48.6875 27.296875 
Q 48.6875 37.203125 44.609375 42.84375 
Q 40.53125 48.484375 33.40625 48.484375 
Q 26.265625 48.484375 22.1875 42.84375 
Q 18.109375 37.203125 18.109375 27.296875 
Q 18.109375 17.390625 22.1875 11.75 
Q 26.265625 6.109375 33.40625 6.109375 
Q 40.53125 6.109375 44.609375 11.75 
Q 48.6875 17.390625 48.6875 27.296875 
z
" id="DejaVuSans-70"/>
     </defs>
     <g transform="translate(225.344375 335.860562)scale(0.1 -0.1)">
      <use xlink:href="#DejaVuSans-73"/>
      <use x="52.099609" xlink:href="#DejaVuSans-74"/>
      <use x="91.308594" xlink:href="#DejaVuSans-65"/>
      <use x="152.832031" xlink:href="#DejaVuSans-70"/>
     </g>
    </g>
   </g>
   <g id="matplotlib.axis_2">
    <g id="ytick_1">
     <g id="line2d_15">
      <path clip-path="url(#p6de67c13f4)" d="M 57.6 307.584 
L 414.72 307.584 
" style="fill:none;stroke:#b0b0b0;stroke-linecap:square;stroke-width:0.8;"/>
     </g>
     <g id="line2d_16">
      <defs>
       <path d="M 0 0 
L -3.5 0 
" id="mff683bed99" style="stroke:#000000;stroke-width:0.8;"/>
      </defs>
      <g>
       <use style="stroke:#000000;stroke-width:0.8;" x="57.6" xlink:href="#mff683bed99" y="307.584"/>
      </g>
     </g>
     <g id="text_9">
      <!-- 0 -->
      <g transform="translate(44.2375 311.383219)scale(0.1 -0.1)">
       <use xlink:href="#DejaVuSans-30"/>
      </g>
     </g>
    </g>
    <g id="ytick_2">
     <g id="line2d_17">
      <path clip-path="url(#p6de67c13f4)" d="M 57.6 274.32 
L 414.72 274.32 
" style="fill:none;stroke:#b0b0b0;stroke-linecap:square;stroke-width:0.8;"/>
     </g>
     <g id="line2d_18">
      <g>
       <use style="stroke:#000000;stroke-width:0.8;" x="57.6" xlink:href="#mff683bed99" y="274.32"/>
      </g>
     </g>
     <g id="text_10">
      <!-- 50 -->
      <g transform="translate(37.875 278.119219)scale(0.1 -0.1)">
       <use xlink:href="#DejaVuSans-35"/>
       <use x="63.623047" xlink:href="#DejaVuSans-30"/>
      </g>
     </g>
    </g>
    <g id="ytick_3">
     <g id="line2d_19">
      <path clip-path="url(#p6de67c13f4)" d="M 57.6 241.056 
L 414.72 241.056 
" style="fill:none;stroke:#b0b0b0;stroke-linecap:square;stroke-width:0.8;"/>
     </g>
     <g id="line2d_20">
      <g>
       <use style="stroke:#000000;stroke-width:0.8;" x="57.6" xlink:href="#mff683bed99" y="241.056"/>
      </g>
     </g>
     <g id="text_11">
      <!-- 100 -->
      <g transform="translate(31.5125 244.855219)scale(0.1 -0.1)">
       <use xlink:href="#DejaVuSans-31"/>
       <use x="63.623047" xlink:href="#DejaVuSans-30"/>
       <use x="127.246094" xlink:href="#DejaVuSans-30"/>
      </g>
     </g>
    </g>
    <g id="ytick_4">
     <g id="line2d_21">
      <path clip-path="url(#p6de67c13f4)" d="M 57.6 207.792 
L 414.72 207.792 
" style="fill:none;stroke:#b0b0b0;stroke-linecap:square;stroke-width:0.8;"/>
     </g>
     <g id="line2d_22">
      <g>
       <use style="stroke:#000000;stroke-width:0.8;" x="57.6" xlink:href="#mff683bed99" y="207.792"/>
      </g>
     </g>
     <g id="text_12">
      <!-- 150 -->
      <g transform="translate(31.5125 211.591219)scale(0.1 -0.1)">
       <use xlink:href="#DejaVuSans-31"/>
       <use x="63.623047" xlink:href="#DejaVuSans-35"/>
       <use x="127.246094" xlink:href="#DejaVuSans-30"/>
      </g>
     </g>
    </g>
    <g id="ytick_5">
     <g id="line2d_23">
      <path clip-path="url(#p6de67c13f4)" d="M 57.6 174.528 
L 414.72 174.528 
" style="fill:none;stroke:#b0b0b0;stroke-linecap:square;stroke-width:0.8;"/>
     </g>
     <g id="line2d_24">
      <g>
       <use style="stroke:#000000;stroke-width:0.8;" x="57.6" xlink:href="#mff683bed99" y="174.528"/>
      </g>
     </g>
     <g id="text_13">
      <!-- 200 -->
      <g transform="translate(31.5125 178.327219)scale(0.1 -0.1)">
       <use xlink:href="#DejaVuSans-32"/>
       <use x="63.623047" xlink:href="#DejaVuSans-30"/>
       <use x="127.246094" xlink:href="#DejaVuSans-30"/>
      </g>
     </g>
    </g>
    <g id="ytick_6">
     <g id="line2d_25">
      <path clip-path="url(#p6de67c13f4)" d="M 57.6 141.264 
L 414.72 141.264 
" style="fill:none;stroke:#b0b0b0;stroke-linecap:square;stroke-width:0.8;"/>
     </g>
     <g id="line2d_26">
      <g>
       <use style="stroke:#000000;stroke-width:0.8;" x="57.6" xlink:href="#mff683bed99" y="141.264"/>
      </g>
     </g>
     <g id="text_14">
      <!-- 250 -->
      <g transform="translate(31.5125 145.063219)scale(0.1 -0.1)">
       <use xlink:href="#DejaVuSans-32"/>
       <use x="63.623047" xlink:href="#DejaVuSans-35"/>
       <use x="127.246094" xlink:href="#DejaVuSans-30"/>
      </g>
     </g>
    </g>
    <g id="ytick_7">
     <g id="line2d_27">
      <path clip-path="url(#p6de67c13f4)" d="M 57.6 108 
L 414.72 108 
" style="fill:none;stroke:#b0b0b0;stroke-linecap:square;stroke-width:0.8;"/>
     </g>
     <g id="line2d_28">
      <g>
       <use style="stroke:#000000;stroke-width:0.8;" x="57.6" xlink:href="#mff683bed99" y="108"/>
      </g>
     </g>
     <g id="text_15">
      <!-- 300 -->
      <g transform="translate(31.5125 111.799219)scale(0.1 -0.1)">
       <use xlink:href="#DejaVuSans-33"/>
       <use x="63.623047" xlink:href="#DejaVuSans-30"/>
       <use x="127.246094" xlink:href="#DejaVuSans-30"/>
      </g>
     </g>
    </g>
    <g id="ytick_8">
     <g id="line2d_29">
      <path clip-path="url(#p6de67c13f4)" d="M 57.6 74.736 
L 414.72 74.736 
" style="fill:none;stroke:#b0b0b0;stroke-linecap:square;stroke-width:0.8;"/>
     </g>
     <g id="line2d_30">
      <g>
       <use style="stroke:#000000;stroke-width:0.8;" x="57.6" xlink:href="#mff683bed99" y="74.736"/>
      </g>
     </g>
     <g id="text_16">
      <!-- 350 -->
      <g transform="translate(31.5125 78.535219)scale(0.1 -0.1)">
       <use xlink:href="#DejaVuSans-33"/>
       <use x="63.623047" xlink:href="#DejaVuSans-35"/>
       <use x="127.246094" xlink:href="#DejaVuSans-30"/>
      </g>
     </g>
    </g>
    <g id="ytick_9">
     <g id="line2d_31">
      <path clip-path="url(#p6de67c13f4)" d="M 57.6 41.472 
L 414.72 41.472 
" style="fill:none;stroke:#b0b0b0;stroke-linecap:square;stroke-width:0.8;"/>
     </g>
     <g id="line2d_32">
      <g>
       <use style="stroke:#000000;stroke-width:0.8;" x="57.6" xlink:href="#mff683bed99" y="41.472"/>
      </g>
     </g>
     <g id="text_17">
      <!-- 400 -->
      <g transform="translate(31.5125 45.271219)scale(0.1 -0.1)">
       <use xlink:href="#DejaVuSans-34"/>
       <use x="63.623047" xlink:href="#DejaVuSans-30"/>
       <use x="127.246094" xlink:href="#DejaVuSans-30"/>
      </g>
     </g>
    </g>
    <g id="text_18">
     <!-- return -->
     <defs>
      <path d="M 41.109375 46.296875 
Q 39.59375 47.171875 37.8125 47.578125 
Q 36.03125 48 33.890625 48 
Q 26.265625 48 22.1875 43.046875 
Q 18.109375 38.09375 18.109375 28.8125 
L 18.109375 0 
L 9.078125 0 
L 9.078125 54.6875 
L 18.109375 54.6875 
L 18.109375 46.1875 
Q 20.953125 51.171875 25.484375 53.578125 
Q 30.03125 56 36.53125 56 
Q 37.453125 56 38.578125 55.875 
Q 39.703125 55.765625 41.0625 55.515625 
z
" id="DejaVuSans-72"/>
      <path d="M 8.5 21.578125 
L 8.5 54.6875 
L 17.484375 54.6875 
L 17.484375 21.921875 
Q 17.484375 14.15625 20.5 10.265625 
Q 23.53125 6.390625 29.59375 6.390625 
Q 36.859375 6.390625 41.078125 11.03125 
Q 45.3125 15.671875 45.3125 23.6875 
L 45.3125 54.6875 
L 54.296875 54.6875 
L 54.296875 0 
L 45.3125 0 
L 45.3125 8.40625 
Q 42.046875 3.421875 37.71875 1 
Q 33.40625 -1.421875 27.6875 -1.421875 
Q 18.265625 -1.421875 13.375 4.4375 
Q 8.5 10.296875 8.5 21.578125 
z
M 31.109375 56 
z
" id="DejaVuSans-75"/>
      <path d="M 54.890625 33.015625 
L 54.890625 0 
L 45.90625 0 
L 45.90625 32.71875 
Q 45.90625 40.484375 42.875 44.328125 
Q 39.84375 48.1875 33.796875 48.1875 
Q 26.515625 48.1875 22.3125 43.546875 
Q 18.109375 38.921875 18.109375 30.90625 
L 18.109375 0 
L 9.078125 0 
L 9.078125 54.6875 
L 18.109375 54.6875 
L 18.109375 46.1875 
Q 21.34375 51.125 25.703125 53.5625 
Q 30.078125 56 35.796875 56 
Q 45.21875 56 50.046875 50.171875 
Q 54.890625 44.34375 54.890625 33.015625 
z
" id="DejaVuSans-6e"/>
     </defs>
     <g transform="translate(25.432812 190.010812)rotate(-90)scale(0.1 -0.1)">
      <use xlink:href="#DejaVuSans-72"/>
      <use x="41.082031" xlink:href="#DejaVuSans-65"/>
      <use x="102.605469" xlink:href="#DejaVuSans-74"/>
      <use x="141.814453" xlink:href="#DejaVuSans-75"/>
      <use x="205.193359" xlink:href="#DejaVuSans-72"/>
      <use x="246.291016" xlink:href="#DejaVuSans-6e"/>
     </g>
    </g>
   </g>
   <g id="line2d_33">
    <path clip-path="url(#p6de67c13f4)" d="M 57.6 304.027157 
L 60.576 304.027157 
L 61.1712 304.592268 
L 62.3616 303.350246 
L 64.7424 300.512645 
L 67.1232 296.787986 
L 67.7184 296.175269 
L 68.3136 295.302541 
L 68.9088 294.728826 
L 69.504 293.744954 
L 70.0992 293.202889 
L 71.2896 291.818206 
L 72.48 290.522589 
L 73.6704 289.11208 
L 74.8608 287.756718 
L 75.456 287.31511 
L 76.0512 286.189326 
L 77.2416 286.399229 
L 77.8368 285.727702 
L 78.432 285.735567 
L 79.0272 284.863409 
L 80.2176 284.111966 
L 80.8128 283.393261 
L 81.408 283.372094 
L 82.0032 284.615061 
L 82.5984 283.851329 
L 83.1936 281.963005 
L 83.7888 281.423212 
L 84.384 281.439052 
L 84.9792 283.294731 
L 85.5744 283.391704 
L 86.1696 282.446071 
L 86.7648 281.954903 
L 87.36 282.913705 
L 87.9552 281.618774 
L 88.5504 282.747081 
L 89.1456 285.924621 
L 89.7408 286.499549 
L 90.336 285.04772 
L 90.9312 284.339063 
L 91.5264 284.196985 
L 92.1216 287.178992 
L 92.7168 286.977252 
L 93.9072 284.354246 
L 94.5024 281.273815 
L 95.0976 279.771876 
L 95.6928 279.360645 
L 96.288 280.077328 
L 96.8832 277.363407 
L 97.4784 278.64325 
L 98.0736 275.247757 
L 98.6688 275.228381 
L 99.264 274.00821 
L 100.4544 277.457777 
L 101.0496 274.532387 
L 101.6448 273.144309 
L 102.24 272.501418 
L 102.8352 272.770136 
L 103.4304 269.893326 
L 105.216 266.628176 
L 106.4064 264.121515 
L 107.0016 263.91193 
L 107.5968 262.889203 
L 108.192 264.778459 
L 108.7872 263.848082 
L 109.9776 263.888251 
L 110.5728 265.104133 
L 111.168 265.13628 
L 111.7632 263.766812 
L 112.3584 261.530559 
L 112.9536 263.953075 
L 113.5488 267.219284 
L 114.144 264.295571 
L 114.7392 265.151855 
L 115.3344 262.975391 
L 116.5248 263.009045 
L 117.12 266.706144 
L 117.7152 265.331142 
L 118.3104 268.934513 
L 118.9056 266.508429 
L 119.5008 265.001146 
L 120.096 262.864258 
L 120.6912 263.851161 
L 121.2864 266.474129 
L 121.8816 268.331664 
L 122.4768 267.521285 
L 123.072 265.478555 
L 123.6672 268.002152 
L 124.2624 268.040167 
L 124.8576 270.864682 
L 125.4528 269.343814 
L 126.048 270.004815 
L 126.6432 268.99925 
L 127.2384 269.858003 
L 128.4288 272.895433 
L 129.6192 269.445285 
L 130.2144 268.229369 
L 130.8096 265.516208 
L 131.4048 266.778569 
L 132 269.648126 
L 132.5952 271.773054 
L 133.1904 270.970624 
L 133.7856 266.412204 
L 134.3808 263.805667 
L 134.976 265.247234 
L 135.5712 265.948208 
L 136.1664 264.870444 
L 136.7616 267.265967 
L 137.3568 266.298723 
L 137.952 265.696401 
L 139.1424 257.092656 
L 139.7376 258.716727 
L 140.3328 262.99822 
L 140.928 261.559147 
L 141.5232 261.971718 
L 142.1184 264.957665 
L 142.7136 261.285121 
L 143.3088 262.505643 
L 143.904 262.961483 
L 144.4992 263.862935 
L 145.0944 269.149761 
L 145.6896 270.376496 
L 146.2848 268.565307 
L 146.88 268.80165 
L 147.4752 272.273909 
L 148.0704 271.984752 
L 148.6656 276.60746 
L 149.2608 275.029389 
L 149.856 276.318461 
L 150.4512 281.574878 
L 151.0464 280.382267 
L 151.6416 282.641085 
L 152.2368 279.725334 
L 152.832 280.325291 
L 153.4272 276.807136 
L 154.0224 274.535117 
L 154.6176 271.701431 
L 155.2128 274.494011 
L 155.808 274.899912 
L 156.4032 273.976404 
L 156.9984 271.829283 
L 157.5936 268.806945 
L 158.1888 270.954673 
L 158.784 269.818734 
L 159.3792 268.047244 
L 159.9744 267.877614 
L 161.1648 272.362038 
L 161.76 268.943526 
L 162.3552 267.859964 
L 163.5456 271.843775 
L 164.1408 270.575199 
L 165.3312 278.284006 
L 165.9264 280.519134 
L 166.5216 281.407702 
L 167.1168 279.519322 
L 167.712 279.944674 
L 168.3072 279.550503 
L 168.9024 277.097957 
L 169.4976 276.176251 
L 170.0928 280.108749 
L 170.688 276.058282 
L 171.2832 272.960468 
L 171.8784 272.929112 
L 172.4736 269.845963 
L 173.0688 265.90526 
L 173.664 267.83852 
L 174.2592 264.732528 
L 174.8544 263.762601 
L 175.4496 259.289903 
L 176.0448 249.420249 
L 176.64 247.040884 
L 177.2352 241.272452 
L 177.8304 230.705501 
L 178.4256 225.276133 
L 179.0208 223.105314 
L 179.616 214.319325 
L 180.2112 208.136764 
L 181.4016 203.004791 
L 181.9968 202.03149 
L 182.592 199.061877 
L 183.1872 200.236629 
L 183.7824 205.409125 
L 184.3776 205.957964 
L 184.9728 201.619386 
L 185.568 202.023981 
L 186.1632 199.613077 
L 187.3536 191.935176 
L 187.9488 192.762518 
L 188.544 191.620217 
L 189.1392 189.745025 
L 189.7344 183.754067 
L 190.3296 181.183332 
L 190.9248 183.304413 
L 191.52 182.483539 
L 192.1152 185.016082 
L 192.7104 189.865854 
L 193.3056 192.707662 
L 193.9008 191.179213 
L 194.496 191.072536 
L 195.0912 189.488297 
L 195.6864 190.601476 
L 196.2816 190.044449 
L 196.8768 187.329273 
L 197.472 185.272438 
L 198.0672 184.580436 
L 198.6624 179.163613 
L 199.2576 175.452878 
L 199.8528 172.696557 
L 200.448 171.416285 
L 201.0432 171.661152 
L 202.2336 168.7607 
L 203.424 166.888006 
L 204.0192 165.211711 
L 204.6144 164.093815 
L 205.2096 166.077471 
L 205.8048 164.624041 
L 206.4 163.999724 
L 206.9952 163.032287 
L 208.1856 163.009722 
L 209.376 161.584583 
L 209.9712 160.1352 
L 210.5664 159.863112 
L 211.1616 157.779594 
L 211.7568 158.651312 
L 212.352 159.09689 
L 212.9472 157.571281 
L 213.5424 157.346206 
L 214.7328 160.041412 
L 215.328 159.366509 
L 215.9232 159.664431 
L 216.5184 158.685579 
L 217.1136 157.248552 
L 217.7088 157.032034 
L 218.304 154.974612 
L 218.8992 155.040372 
L 219.4944 155.455313 
L 220.0896 151.23528 
L 220.6848 148.291204 
L 221.28 147.881493 
L 221.8752 147.154784 
L 222.4704 150.365264 
L 223.0656 152.494393 
L 223.6608 152.414032 
L 224.256 154.447954 
L 224.8512 153.854608 
L 225.4464 154.310246 
L 226.6368 153.369873 
L 227.232 151.786845 
L 227.8272 153.690385 
L 228.4224 150.325066 
L 229.6128 145.886152 
L 230.208 142.372747 
L 231.3984 144.231283 
L 231.9936 143.441908 
L 232.5888 144.852582 
L 233.184 144.988319 
L 233.7792 148.014287 
L 234.3744 144.035764 
L 234.9696 145.768174 
L 235.5648 146.242789 
L 236.16 147.647918 
L 236.7552 148.381027 
L 237.3504 141.987392 
L 237.9456 141.571793 
L 238.5408 141.807152 
L 239.136 144.340789 
L 239.7312 137.196098 
L 240.3264 140.812494 
L 240.9216 139.153625 
L 241.5168 138.10778 
L 242.112 135.049184 
L 242.7072 132.831081 
L 243.3024 134.895601 
L 243.8976 135.161658 
L 244.4928 131.942823 
L 245.088 133.694399 
L 245.6832 135.037851 
L 246.2784 131.893365 
L 246.8736 131.135875 
L 247.4688 131.893868 
L 248.064 131.529974 
L 248.6592 129.906209 
L 249.2544 133.910485 
L 249.8496 135.143113 
L 250.4448 137.5481 
L 251.04 132.886212 
L 251.6352 131.921062 
L 252.2304 133.724554 
L 252.8256 131.700395 
L 253.4208 131.736592 
L 254.016 133.180728 
L 254.6112 134.182118 
L 255.2064 133.099559 
L 255.8016 133.498832 
L 256.3968 131.243884 
L 256.992 134.757111 
L 257.5872 134.693364 
L 258.1824 134.917038 
L 258.7776 134.169344 
L 259.3728 134.124716 
L 259.968 132.145529 
L 260.5632 131.428981 
L 261.1584 126.675621 
L 261.7536 123.909259 
L 262.3488 127.09024 
L 262.944 125.423594 
L 263.5392 127.135463 
L 264.1344 124.046972 
L 264.7296 123.917462 
L 265.3248 127.117453 
L 265.92 128.171146 
L 266.5152 131.37806 
L 267.1104 131.013242 
L 267.7056 132.121497 
L 268.3008 132.890473 
L 268.896 129.5282 
L 269.4912 128.549937 
L 270.0864 130.360645 
L 270.6816 135.705137 
L 271.2768 133.983187 
L 271.872 134.480908 
L 272.4672 129.835574 
L 273.6576 133.523228 
L 274.2528 129.536419 
L 274.848 134.069201 
L 275.4432 134.113952 
L 276.0384 133.7397 
L 276.6336 129.819017 
L 277.2288 126.65816 
L 277.824 125.926211 
L 278.4192 130.330206 
L 279.0144 129.017229 
L 279.6096 128.522467 
L 280.2048 126.667379 
L 280.8 123.216614 
L 281.3952 122.186533 
L 281.9904 125.152386 
L 282.5856 124.252741 
L 283.1808 126.884485 
L 283.776 128.557608 
L 284.3712 128.101744 
L 284.9664 128.226703 
L 285.5616 133.507183 
L 286.752 137.76714 
L 287.3472 138.108773 
L 287.9424 135.720473 
L 288.5376 135.374168 
L 289.1328 130.955193 
L 289.728 130.185741 
L 290.3232 127.733121 
L 290.9184 128.854349 
L 291.5136 127.431367 
L 292.1088 126.473412 
L 292.704 124.984015 
L 293.2992 128.236731 
L 293.8944 128.028941 
L 294.4896 129.518278 
L 295.0848 132.500981 
L 295.68 137.164406 
L 296.2752 134.613944 
L 296.8704 134.787659 
L 297.4656 132.844453 
L 298.0608 137.307701 
L 298.656 136.962617 
L 299.8464 133.827458 
L 300.4416 136.338795 
L 301.0368 140.027721 
L 301.632 134.635582 
L 302.2272 137.941597 
L 302.8224 139.919526 
L 303.4176 135.287477 
L 304.0128 132.086056 
L 304.608 132.656577 
L 305.2032 131.612117 
L 305.7984 139.111494 
L 306.3936 135.148359 
L 306.9888 132.206909 
L 307.584 138.2949 
L 308.1792 138.116618 
L 308.7744 131.834007 
L 309.3696 131.687217 
L 309.9648 137.282078 
L 310.56 138.913956 
L 311.1552 137.446485 
L 311.7504 131.923405 
L 312.3456 134.414139 
L 312.9408 134.750355 
L 313.536 126.964747 
L 314.7264 139.559862 
L 315.3216 139.202709 
L 315.9168 133.785391 
L 316.512 133.223925 
L 317.1072 141.535324 
L 317.7024 141.913657 
L 318.2976 148.14102 
L 318.8928 146.541548 
L 319.488 148.039822 
L 320.0832 147.841093 
L 320.6784 148.079339 
L 321.2736 148.912496 
L 321.8688 145.687832 
L 322.464 145.943808 
L 323.0592 137.205216 
L 323.6544 136.110282 
L 324.2496 129.197901 
L 324.8448 129.897443 
L 325.44 134.201338 
L 326.0352 126.700422 
L 326.6304 120.698784 
L 327.2256 119.729775 
L 327.8208 121.956792 
L 328.416 120.790319 
L 329.0112 124.661297 
L 329.6064 124.144939 
L 330.2016 130.009893 
L 330.7968 127.745093 
L 331.9872 125.498519 
L 332.5824 133.234602 
L 333.1776 136.680284 
L 333.7728 144.546138 
L 334.368 142.232713 
L 334.9632 139.021727 
L 335.5584 137.878898 
L 336.1536 134.165626 
L 336.7488 135.749905 
L 337.344 132.633994 
L 337.9392 137.438406 
L 338.5344 130.209484 
L 339.1296 126.007682 
L 339.7248 117.629545 
L 340.32 118.271964 
L 341.5104 120.326114 
L 342.1056 121.728502 
L 342.7008 120.12635 
L 343.296 119.971786 
L 343.8912 115.502594 
L 344.4864 116.662794 
L 345.0816 118.257897 
L 345.6768 116.071394 
L 346.272 115.272187 
L 346.8672 112.897676 
L 347.4624 112.391966 
L 348.0576 108.625443 
L 348.6528 108.659629 
L 349.248 110.4137 
L 349.8432 112.759267 
L 350.4384 111.702124 
L 351.0336 111.674802 
L 351.6288 114.450989 
L 352.224 115.334463 
L 352.8192 114.377087 
L 353.4144 116.205167 
L 354.0096 115.914448 
L 354.6048 119.4327 
L 355.2 123.934378 
L 355.7952 121.203406 
L 356.3904 120.208624 
L 356.9856 122.730514 
L 357.5808 124.756049 
L 358.176 129.594889 
L 358.7712 142.096854 
L 359.3664 145.304602 
L 359.9616 144.339192 
L 360.5568 147.217829 
L 361.152 141.476516 
L 361.7472 146.305221 
L 362.3424 148.723946 
L 362.9376 147.218272 
L 363.5328 146.211944 
L 364.128 140.502233 
L 364.7232 130.651515 
L 365.3184 124.259218 
L 365.9136 124.244257 
L 366.5088 117.175128 
L 367.104 120.009186 
L 368.2944 115.802721 
L 368.8896 114.394693 
L 369.4848 120.033517 
L 370.08 120.08305 
L 370.6752 116.986116 
L 371.2704 120.098256 
L 371.8656 121.502885 
L 373.056 127.389907 
L 373.6512 126.276467 
L 374.2464 127.802084 
L 374.8416 128.838576 
L 375.4368 119.059903 
L 376.032 117.56751 
L 376.6272 122.650703 
L 377.2224 125.509268 
L 377.8176 123.297156 
L 379.008 119.913016 
L 379.6032 119.559828 
L 380.1984 119.722025 
L 381.3888 125.154982 
L 381.984 127.435004 
L 382.5792 126.77972 
L 383.1744 127.134874 
L 383.7696 131.968778 
L 384.3648 140.034004 
L 384.96 136.566154 
L 385.5552 136.146467 
L 387.3408 146.597573 
L 387.936 149.018226 
L 388.5312 153.263361 
L 389.1264 151.60006 
L 389.7216 150.503788 
L 390.3168 141.557341 
L 391.5072 139.049682 
L 392.1024 134.877831 
L 392.6976 125.470302 
L 393.2928 124.735332 
L 393.888 121.73841 
L 394.4832 114.48827 
L 395.0784 113.12721 
L 395.6736 110.944891 
L 396.2688 115.800628 
L 396.864 115.479486 
L 397.4592 115.647029 
L 398.0544 116.200923 
L 398.6496 121.764696 
L 399.2448 115.99605 
L 399.84 121.535809 
L 400.4352 120.857825 
L 401.0304 119.762237 
L 401.6256 118.237164 
L 402.2208 114.057975 
L 402.816 115.15926 
L 403.4112 112.905695 
L 404.0064 113.920752 
L 404.6016 109.326739 
L 405.1968 112.962315 
L 405.792 106.330397 
L 406.3872 108.732177 
L 406.9824 108.209422 
L 407.5776 109.471032 
L 408.1728 113.890817 
L 408.768 112.174605 
L 409.3632 114.503731 
L 409.9584 111.7059 
L 410.5536 113.582171 
L 414.1248 113.582171 
L 414.1248 113.582171 
" style="fill:none;stroke:#ff0000;stroke-linecap:square;"/>
   </g>
   <g id="patch_3">
    <path d="M 57.6 307.584 
L 57.6 41.472 
" style="fill:none;stroke:#000000;stroke-linecap:square;stroke-linejoin:miter;stroke-width:0.8;"/>
   </g>
   <g id="patch_4">
    <path d="M 414.72 307.584 
L 414.72 41.472 
" style="fill:none;stroke:#000000;stroke-linecap:square;stroke-linejoin:miter;stroke-width:0.8;"/>
   </g>
   <g id="patch_5">
    <path d="M 57.6 307.584 
L 414.72 307.584 
" style="fill:none;stroke:#000000;stroke-linecap:square;stroke-linejoin:miter;stroke-width:0.8;"/>
   </g>
   <g id="patch_6">
    <path d="M 57.6 41.472 
L 414.72 41.472 
" style="fill:none;stroke:#000000;stroke-linecap:square;stroke-linejoin:miter;stroke-width:0.8;"/>
   </g>
   <g id="text_19">
    <!-- return of super agent on Breakout -->
    <defs>
     <path id="DejaVuSans-20"/>
     <path d="M 30.609375 48.390625 
Q 23.390625 48.390625 19.1875 42.75 
Q 14.984375 37.109375 14.984375 27.296875 
Q 14.984375 17.484375 19.15625 11.84375 
Q 23.34375 6.203125 30.609375 6.203125 
Q 37.796875 6.203125 41.984375 11.859375 
Q 46.1875 17.53125 46.1875 27.296875 
Q 46.1875 37.015625 41.984375 42.703125 
Q 37.796875 48.390625 30.609375 48.390625 
z
M 30.609375 56 
Q 42.328125 56 49.015625 48.375 
Q 55.71875 40.765625 55.71875 27.296875 
Q 55.71875 13.875 49.015625 6.21875 
Q 42.328125 -1.421875 30.609375 -1.421875 
Q 18.84375 -1.421875 12.171875 6.21875 
Q 5.515625 13.875 5.515625 27.296875 
Q 5.515625 40.765625 12.171875 48.375 
Q 18.84375 56 30.609375 56 
z
" id="DejaVuSans-6f"/>
     <path d="M 37.109375 75.984375 
L 37.109375 68.5 
L 28.515625 68.5 
Q 23.6875 68.5 21.796875 66.546875 
Q 19.921875 64.59375 19.921875 59.515625 
L 19.921875 54.6875 
L 34.71875 54.6875 
L 34.71875 47.703125 
L 19.921875 47.703125 
L 19.921875 0 
L 10.890625 0 
L 10.890625 47.703125 
L 2.296875 47.703125 
L 2.296875 54.6875 
L 10.890625 54.6875 
L 10.890625 58.5 
Q 10.890625 67.625 15.140625 71.796875 
Q 19.390625 75.984375 28.609375 75.984375 
z
" id="DejaVuSans-66"/>
     <path d="M 34.28125 27.484375 
Q 23.390625 27.484375 19.1875 25 
Q 14.984375 22.515625 14.984375 16.5 
Q 14.984375 11.71875 18.140625 8.90625 
Q 21.296875 6.109375 26.703125 6.109375 
Q 34.1875 6.109375 38.703125 11.40625 
Q 43.21875 16.703125 43.21875 25.484375 
L 43.21875 27.484375 
z
M 52.203125 31.203125 
L 52.203125 0 
L 43.21875 0 
L 43.21875 8.296875 
Q 40.140625 3.328125 35.546875 0.953125 
Q 30.953125 -1.421875 24.3125 -1.421875 
Q 15.921875 -1.421875 10.953125 3.296875 
Q 6 8.015625 6 15.921875 
Q 6 25.140625 12.171875 29.828125 
Q 18.359375 34.515625 30.609375 34.515625 
L 43.21875 34.515625 
L 43.21875 35.40625 
Q 43.21875 41.609375 39.140625 45 
Q 35.0625 48.390625 27.6875 48.390625 
Q 23 48.390625 18.546875 47.265625 
Q 14.109375 46.140625 10.015625 43.890625 
L 10.015625 52.203125 
Q 14.9375 54.109375 19.578125 55.046875 
Q 24.21875 56 28.609375 56 
Q 40.484375 56 46.34375 49.84375 
Q 52.203125 43.703125 52.203125 31.203125 
z
" id="DejaVuSans-61"/>
     <path d="M 45.40625 27.984375 
Q 45.40625 37.75 41.375 43.109375 
Q 37.359375 48.484375 30.078125 48.484375 
Q 22.859375 48.484375 18.828125 43.109375 
Q 14.796875 37.75 14.796875 27.984375 
Q 14.796875 18.265625 18.828125 12.890625 
Q 22.859375 7.515625 30.078125 7.515625 
Q 37.359375 7.515625 41.375 12.890625 
Q 45.40625 18.265625 45.40625 27.984375 
z
M 54.390625 6.78125 
Q 54.390625 -7.171875 48.1875 -13.984375 
Q 42 -20.796875 29.203125 -20.796875 
Q 24.46875 -20.796875 20.265625 -20.09375 
Q 16.0625 -19.390625 12.109375 -17.921875 
L 12.109375 -9.1875 
Q 16.0625 -11.328125 19.921875 -12.34375 
Q 23.78125 -13.375 27.78125 -13.375 
Q 36.625 -13.375 41.015625 -8.765625 
Q 45.40625 -4.15625 45.40625 5.171875 
L 45.40625 9.625 
Q 42.625 4.78125 38.28125 2.390625 
Q 33.9375 0 27.875 0 
Q 17.828125 0 11.671875 7.65625 
Q 5.515625 15.328125 5.515625 27.984375 
Q 5.515625 40.671875 11.671875 48.328125 
Q 17.828125 56 27.875 56 
Q 33.9375 56 38.28125 53.609375 
Q 42.625 51.21875 45.40625 46.390625 
L 45.40625 54.6875 
L 54.390625 54.6875 
z
" id="DejaVuSans-67"/>
     <path d="M 19.671875 34.8125 
L 19.671875 8.109375 
L 35.5 8.109375 
Q 43.453125 8.109375 47.28125 11.40625 
Q 51.125 14.703125 51.125 21.484375 
Q 51.125 28.328125 47.28125 31.5625 
Q 43.453125 34.8125 35.5 34.8125 
z
M 19.671875 64.796875 
L 19.671875 42.828125 
L 34.28125 42.828125 
Q 41.5 42.828125 45.03125 45.53125 
Q 48.578125 48.25 48.578125 53.8125 
Q 48.578125 59.328125 45.03125 62.0625 
Q 41.5 64.796875 34.28125 64.796875 
z
M 9.8125 72.90625 
L 35.015625 72.90625 
Q 46.296875 72.90625 52.390625 68.21875 
Q 58.5 63.53125 58.5 54.890625 
Q 58.5 48.1875 55.375 44.234375 
Q 52.25 40.28125 46.1875 39.3125 
Q 53.46875 37.75 57.5 32.78125 
Q 61.53125 27.828125 61.53125 20.40625 
Q 61.53125 10.640625 54.890625 5.3125 
Q 48.25 0 35.984375 0 
L 9.8125 0 
z
" id="DejaVuSans-42"/>
     <path d="M 9.078125 75.984375 
L 18.109375 75.984375 
L 18.109375 31.109375 
L 44.921875 54.6875 
L 56.390625 54.6875 
L 27.390625 29.109375 
L 57.625 0 
L 45.90625 0 
L 18.109375 26.703125 
L 18.109375 0 
L 9.078125 0 
z
" id="DejaVuSans-6b"/>
    </defs>
    <g transform="translate(133.313438 35.472)scale(0.12 -0.12)">
     <use xlink:href="#DejaVuSans-72"/>
     <use x="41.082031" xlink:href="#DejaVuSans-65"/>
     <use x="102.605469" xlink:href="#DejaVuSans-74"/>
     <use x="141.814453" xlink:href="#DejaVuSans-75"/>
     <use x="205.193359" xlink:href="#DejaVuSans-72"/>
     <use x="246.291016" xlink:href="#DejaVuSans-6e"/>
     <use x="309.669922" xlink:href="#DejaVuSans-20"/>
     <use x="341.457031" xlink:href="#DejaVuSans-6f"/>
     <use x="402.638672" xlink:href="#DejaVuSans-66"/>
     <use x="437.84375" xlink:href="#DejaVuSans-20"/>
     <use x="469.630859" xlink:href="#DejaVuSans-73"/>
     <use x="521.730469" xlink:href="#DejaVuSans-75"/>
     <use x="585.109375" xlink:href="#DejaVuSans-70"/>
     <use x="648.585938" xlink:href="#DejaVuSans-65"/>
     <use x="710.109375" xlink:href="#DejaVuSans-72"/>
     <use x="751.222656" xlink:href="#DejaVuSans-20"/>
     <use x="783.009766" xlink:href="#DejaVuSans-61"/>
     <use x="844.289062" xlink:href="#DejaVuSans-67"/>
     <use x="907.765625" xlink:href="#DejaVuSans-65"/>
     <use x="969.289062" xlink:href="#DejaVuSans-6e"/>
     <use x="1032.667969" xlink:href="#DejaVuSans-74"/>
     <use x="1071.876953" xlink:href="#DejaVuSans-20"/>
     <use x="1103.664062" xlink:href="#DejaVuSans-6f"/>
     <use x="1164.845703" xlink:href="#DejaVuSans-6e"/>
     <use x="1228.224609" xlink:href="#DejaVuSans-20"/>
     <use x="1260.011719" xlink:href="#DejaVuSans-42"/>
     <use x="1328.615234" xlink:href="#DejaVuSans-72"/>
     <use x="1369.697266" xlink:href="#DejaVuSans-65"/>
     <use x="1431.220703" xlink:href="#DejaVuSans-61"/>
     <use x="1492.5" xlink:href="#DejaVuSans-6b"/>
     <use x="1550.363281" xlink:href="#DejaVuSans-6f"/>
     <use x="1611.544922" xlink:href="#DejaVuSans-75"/>
     <use x="1674.923828" xlink:href="#DejaVuSans-74"/>
    </g>
   </g>
  </g>
 </g>
 <defs>
  <clipPath id="p6de67c13f4">
   <rect height="266.112" width="357.12" x="57.6" y="41.472"/>
  </clipPath>
 </defs>
</svg>
