<?xml version="1.0" encoding="utf-8" standalone="no"?>
<!DOCTYPE svg PUBLIC "-//W3C//DTD SVG 1.1//EN"
  "http://www.w3.org/Graphics/SVG/1.1/DTD/svg11.dtd">
<!-- Created with matplotlib (http://matplotlib.org/) -->
<svg height="288pt" version="1.1" viewBox="0 0 432 288" width="432pt" xmlns="http://www.w3.org/2000/svg" xmlns:xlink="http://www.w3.org/1999/xlink">
 <defs>
  <style type="text/css">
*{stroke-linecap:butt;stroke-linejoin:round;}
  </style>
 </defs>
 <g id="figure_1">
  <g id="patch_1">
   <path d="M 0 288 
L 432 288 
L 432 0 
L 0 0 
z
" style="fill:#ffffff;"/>
  </g>
  <g id="axes_1">
   <g id="patch_2">
    <path d="M 54 252 
L 388.8 252 
L 388.8 34.56 
L 54 34.56 
z
" style="fill:#ffffff;"/>
   </g>
   <g id="PolyCollection_1">
    <path clip-path="url(#pd1cfb29583)" d="M 54 244.788956 
L 54 242.255211 
L 54.558 242.255211 
L 55.116 242.255211 
L 55.674 242.255211 
L 56.232 242.255211 
L 56.79 242.255211 
L 57.348 243.935759 
L 57.906 242.255211 
L 58.464 240.465498 
L 59.022 238.604821 
L 59.58 236.846824 
L 60.138 235.037059 
L 60.696 233.292803 
L 61.254 231.576022 
L 61.812 229.711028 
L 62.37 227.930099 
L 62.928 226.15573 
L 63.486 224.666307 
L 64.044 223.203251 
L 64.602 221.838164 
L 65.16 220.559869 
L 65.718 219.009542 
L 66.276 217.580034 
L 66.834 215.906209 
L 67.392 214.473777 
L 67.95 213.493448 
L 68.508 212.561026 
L 69.066 211.453661 
L 69.624 210.648113 
L 70.182 210.010791 
L 70.74 209.115221 
L 71.298 208.722753 
L 71.856 208.269069 
L 72.414 207.137425 
L 72.972 206.522828 
L 73.53 205.515697 
L 74.088 204.254388 
L 74.646 203.165522 
L 75.204 201.917732 
L 75.762 201.014733 
L 76.32 199.716728 
L 76.878 197.916926 
L 77.436 195.94783 
L 77.994 195.173513 
L 78.552 194.02288 
L 79.11 192.644239 
L 79.668 191.776938 
L 80.226 190.517254 
L 80.784 189.073811 
L 81.342 187.398219 
L 81.9 186.3834 
L 82.458 186.038285 
L 83.016 186.160554 
L 83.574 185.78105 
L 84.132 185.158301 
L 84.69 185.566139 
L 85.248 185.36205 
L 85.806 186.167679 
L 86.364 186.654607 
L 86.922 186.476671 
L 87.48 186.622367 
L 88.038 186.365366 
L 88.596 186.402761 
L 89.154 186.996526 
L 89.712 187.340242 
L 90.27 186.872795 
L 90.828 186.156853 
L 91.386 184.628692 
L 91.944 184.000677 
L 92.502 183.93652 
L 93.06 183.546967 
L 93.618 183.663862 
L 94.176 182.962168 
L 94.734 181.932555 
L 95.292 181.66765 
L 95.85 181.536497 
L 96.408 182.262294 
L 96.966 182.548024 
L 97.524 182.799631 
L 98.082 182.456763 
L 98.64 183.119701 
L 99.198 182.939124 
L 99.756 182.799605 
L 100.314 183.234105 
L 100.872 183.229007 
L 101.43 183.207769 
L 101.988 182.490679 
L 102.546 182.478317 
L 103.104 182.366471 
L 103.662 182.799659 
L 104.22 182.030609 
L 104.778 181.881393 
L 105.336 182.01869 
L 105.894 181.804074 
L 106.452 181.752235 
L 107.01 181.330649 
L 107.568 181.669862 
L 108.126 181.284342 
L 108.684 181.048085 
L 109.242 180.822797 
L 109.8 181.197049 
L 110.358 181.500373 
L 110.916 181.302019 
L 111.474 180.799427 
L 112.032 180.648775 
L 112.59 180.791881 
L 113.148 180.754077 
L 113.706 181.499609 
L 114.264 182.384639 
L 114.822 182.96698 
L 115.38 183.282375 
L 115.938 183.800946 
L 116.496 184.851782 
L 117.054 185.941555 
L 117.612 186.731506 
L 118.17 187.313461 
L 118.728 187.555311 
L 119.286 187.4336 
L 119.844 185.791209 
L 120.402 185.717816 
L 120.96 185.439837 
L 121.518 185.203057 
L 122.076 185.221777 
L 122.634 185.115199 
L 123.192 184.664459 
L 123.75 184.399066 
L 124.308 184.46949 
L 124.866 184.704679 
L 125.424 185.741936 
L 125.982 185.746899 
L 126.54 185.294138 
L 127.098 185.189128 
L 127.656 184.773916 
L 128.214 184.496303 
L 128.772 183.992903 
L 129.33 184.089695 
L 129.888 184.030928 
L 130.446 183.792622 
L 131.004 183.031434 
L 131.562 182.48082 
L 132.12 182.605736 
L 132.678 182.52204 
L 133.236 182.49384 
L 133.794 182.388578 
L 134.352 183.084827 
L 134.91 182.905886 
L 135.468 183.029341 
L 136.026 183.083732 
L 136.584 184.673572 
L 137.142 185.568029 
L 137.7 186.282775 
L 138.258 186.995626 
L 138.816 187.072553 
L 139.374 187.432014 
L 139.932 186.753554 
L 140.49 186.533306 
L 141.048 187.009267 
L 141.606 187.856755 
L 142.164 188.213268 
L 142.722 188.572676 
L 143.28 188.710108 
L 143.838 188.591678 
L 144.396 188.792028 
L 144.954 189.151036 
L 145.512 189.852833 
L 146.07 189.753559 
L 146.628 189.89918 
L 147.186 189.523445 
L 147.744 188.255182 
L 148.302 188.351731 
L 148.86 188.285282 
L 149.418 188.213136 
L 149.976 187.273753 
L 150.534 186.384312 
L 151.092 186.095278 
L 151.65 186.545843 
L 152.208 186.363282 
L 152.766 186.548378 
L 153.324 187.451404 
L 153.882 187.286762 
L 154.44 187.860018 
L 154.998 188.529318 
L 155.556 190.313385 
L 156.114 191.653628 
L 156.672 192.376664 
L 157.23 193.310127 
L 157.788 193.050028 
L 158.346 194.153159 
L 158.904 194.361841 
L 159.462 194.657441 
L 160.02 195.058174 
L 160.578 195.013526 
L 161.136 194.030028 
L 161.694 194.030028 
L 162.252 194.030028 
L 162.81 194.030028 
L 163.368 194.030028 
L 163.926 194.030028 
L 164.484 194.030028 
L 164.484 207.823053 
L 164.484 207.823053 
L 163.926 207.823053 
L 163.368 207.823053 
L 162.81 207.823053 
L 162.252 207.823053 
L 161.694 207.823053 
L 161.136 207.823053 
L 160.578 208.723234 
L 160.02 208.474549 
L 159.462 208.338396 
L 158.904 208.041185 
L 158.346 207.862049 
L 157.788 207.211719 
L 157.23 206.909216 
L 156.672 206.995289 
L 156.114 206.534614 
L 155.556 205.565116 
L 154.998 205.167642 
L 154.44 204.309019 
L 153.882 203.924223 
L 153.324 203.309612 
L 152.766 202.451307 
L 152.208 202.536942 
L 151.65 203.133518 
L 151.092 202.779305 
L 150.534 202.238805 
L 149.976 202.080257 
L 149.418 201.580027 
L 148.86 201.492051 
L 148.302 201.356154 
L 147.744 201.58398 
L 147.186 202.079638 
L 146.628 201.999067 
L 146.07 201.617398 
L 145.512 201.688745 
L 144.954 201.187393 
L 144.396 201.660551 
L 143.838 201.929857 
L 143.28 202.186388 
L 142.722 201.579795 
L 142.164 200.746055 
L 141.606 200.001739 
L 141.048 199.454605 
L 140.49 198.960292 
L 139.932 198.285757 
L 139.374 198.456835 
L 138.816 197.709059 
L 138.258 197.236303 
L 137.7 197.184157 
L 137.142 197.240235 
L 136.584 197.589931 
L 136.026 197.636336 
L 135.468 197.099001 
L 134.91 197.250401 
L 134.352 197.188663 
L 133.794 197.150613 
L 133.236 197.52756 
L 132.678 197.129976 
L 132.12 196.373948 
L 131.562 196.809186 
L 131.004 197.067491 
L 130.446 197.112742 
L 129.888 197.573582 
L 129.33 196.889629 
L 128.772 197.020012 
L 128.214 197.509606 
L 127.656 197.469474 
L 127.098 198.82089 
L 126.54 199.487855 
L 125.982 198.373492 
L 125.424 197.895941 
L 124.866 197.573127 
L 124.308 197.583095 
L 123.75 198.119817 
L 123.192 197.717985 
L 122.634 197.417043 
L 122.076 197.212257 
L 121.518 196.777514 
L 120.96 196.471509 
L 120.402 197.351985 
L 119.844 197.782978 
L 119.286 197.996279 
L 118.728 197.365963 
L 118.17 196.54757 
L 117.612 196.695173 
L 117.054 196.280173 
L 116.496 196.152619 
L 115.938 195.662477 
L 115.38 195.888253 
L 114.822 195.85465 
L 114.264 195.760079 
L 113.706 195.153418 
L 113.148 195.883137 
L 112.59 196.169248 
L 112.032 195.947368 
L 111.474 195.387519 
L 110.916 194.895253 
L 110.358 194.752789 
L 109.8 194.921299 
L 109.242 194.582666 
L 108.684 194.735352 
L 108.126 195.619629 
L 107.568 195.484424 
L 107.01 195.703643 
L 106.452 196.127669 
L 105.894 196.672512 
L 105.336 196.888207 
L 104.778 196.765538 
L 104.22 196.269434 
L 103.662 196.361763 
L 103.104 195.845422 
L 102.546 195.35128 
L 101.988 194.859896 
L 101.43 194.825567 
L 100.872 195.090153 
L 100.314 195.76527 
L 99.756 196.378079 
L 99.198 197.186766 
L 98.64 197.021439 
L 98.082 196.911089 
L 97.524 196.712777 
L 96.966 196.666008 
L 96.408 197.327904 
L 95.85 197.809108 
L 95.292 198.130107 
L 94.734 197.8606 
L 94.176 197.905805 
L 93.618 198.072516 
L 93.06 198.1071 
L 92.502 198.033464 
L 91.944 198.43425 
L 91.386 198.64728 
L 90.828 198.40911 
L 90.27 198.492764 
L 89.712 198.449358 
L 89.154 198.717284 
L 88.596 198.56245 
L 88.038 197.617965 
L 87.48 198.098679 
L 86.922 199.021029 
L 86.364 199.484921 
L 85.806 200.396057 
L 85.248 200.224728 
L 84.69 200.185575 
L 84.132 200.598852 
L 83.574 201.120293 
L 83.016 201.315151 
L 82.458 201.821019 
L 81.9 201.471114 
L 81.342 201.781484 
L 80.784 202.79225 
L 80.226 203.346206 
L 79.668 204.619173 
L 79.11 205.263374 
L 78.552 206.000724 
L 77.994 206.617803 
L 77.436 207.942483 
L 76.878 209.905034 
L 76.32 212.002217 
L 75.762 212.835539 
L 75.204 213.465949 
L 74.646 214.261209 
L 74.088 215.31243 
L 73.53 216.277317 
L 72.972 216.335305 
L 72.414 216.78529 
L 71.856 217.165768 
L 71.298 216.992443 
L 70.74 216.956406 
L 70.182 217.354498 
L 69.624 217.573525 
L 69.066 217.686074 
L 68.508 217.94217 
L 67.95 218.56162 
L 67.392 219.655126 
L 66.834 220.851798 
L 66.276 221.889992 
L 65.718 223.256031 
L 65.16 224.83481 
L 64.602 226.227733 
L 64.044 227.902556 
L 63.486 229.688173 
L 62.928 231.430522 
L 62.37 233.239248 
L 61.812 234.869667 
L 61.254 236.405251 
L 60.696 237.989334 
L 60.138 239.415859 
L 59.58 240.787126 
L 59.022 242.235005 
L 58.464 243.51698 
L 57.906 244.788956 
L 57.348 245.907022 
L 56.79 244.788956 
L 56.232 244.788956 
L 55.674 244.788956 
L 55.116 244.788956 
L 54.558 244.788956 
L 54 244.788956 
z
" style="fill:#0000ff;fill-opacity:0.5;"/>
   </g>
   <g id="matplotlib.axis_1">
    <g id="xtick_1">
     <g id="line2d_1">
      <path clip-path="url(#pd1cfb29583)" d="M 54 252 
L 54 34.56 
" style="fill:none;stroke:#b0b0b0;stroke-linecap:square;stroke-width:0.8;"/>
     </g>
     <g id="line2d_2">
      <defs>
       <path d="M 0 0 
L 0 3.5 
" id="m5f996f75a7" style="stroke:#000000;stroke-width:0.8;"/>
      </defs>
      <g>
       <use style="stroke:#000000;stroke-width:0.8;" x="54" xlink:href="#m5f996f75a7" y="252"/>
      </g>
     </g>
     <g id="text_1">
      <!-- 0 -->
      <defs>
       <path d="M 31.78125 66.40625 
Q 24.171875 66.40625 20.328125 58.90625 
Q 16.5 51.421875 16.5 36.375 
Q 16.5 21.390625 20.328125 13.890625 
Q 24.171875 6.390625 31.78125 6.390625 
Q 39.453125 6.390625 43.28125 13.890625 
Q 47.125 21.390625 47.125 36.375 
Q 47.125 51.421875 43.28125 58.90625 
Q 39.453125 66.40625 31.78125 66.40625 
z
M 31.78125 74.21875 
Q 44.046875 74.21875 50.515625 64.515625 
Q 56.984375 54.828125 56.984375 36.375 
Q 56.984375 17.96875 50.515625 8.265625 
Q 44.046875 -1.421875 31.78125 -1.421875 
Q 19.53125 -1.421875 13.0625 8.265625 
Q 6.59375 17.96875 6.59375 36.375 
Q 6.59375 54.828125 13.0625 64.515625 
Q 19.53125 74.21875 31.78125 74.21875 
z
" id="DejaVuSans-30"/>
      </defs>
      <g transform="translate(50.81875 266.598437)scale(0.1 -0.1)">
       <use xlink:href="#DejaVuSans-30"/>
      </g>
     </g>
    </g>
    <g id="xtick_2">
     <g id="line2d_3">
      <path clip-path="url(#pd1cfb29583)" d="M 109.8 252 
L 109.8 34.56 
" style="fill:none;stroke:#b0b0b0;stroke-linecap:square;stroke-width:0.8;"/>
     </g>
     <g id="line2d_4">
      <g>
       <use style="stroke:#000000;stroke-width:0.8;" x="109.8" xlink:href="#m5f996f75a7" y="252"/>
      </g>
     </g>
     <g id="text_2">
      <!-- 100 -->
      <defs>
       <path d="M 12.40625 8.296875 
L 28.515625 8.296875 
L 28.515625 63.921875 
L 10.984375 60.40625 
L 10.984375 69.390625 
L 28.421875 72.90625 
L 38.28125 72.90625 
L 38.28125 8.296875 
L 54.390625 8.296875 
L 54.390625 0 
L 12.40625 0 
z
" id="DejaVuSans-31"/>
      </defs>
      <g transform="translate(100.25625 266.598437)scale(0.1 -0.1)">
       <use xlink:href="#DejaVuSans-31"/>
       <use x="63.623047" xlink:href="#DejaVuSans-30"/>
       <use x="127.246094" xlink:href="#DejaVuSans-30"/>
      </g>
     </g>
    </g>
    <g id="xtick_3">
     <g id="line2d_5">
      <path clip-path="url(#pd1cfb29583)" d="M 165.6 252 
L 165.6 34.56 
" style="fill:none;stroke:#b0b0b0;stroke-linecap:square;stroke-width:0.8;"/>
     </g>
     <g id="line2d_6">
      <g>
       <use style="stroke:#000000;stroke-width:0.8;" x="165.6" xlink:href="#m5f996f75a7" y="252"/>
      </g>
     </g>
     <g id="text_3">
      <!-- 200 -->
      <defs>
       <path d="M 19.1875 8.296875 
L 53.609375 8.296875 
L 53.609375 0 
L 7.328125 0 
L 7.328125 8.296875 
Q 12.9375 14.109375 22.625 23.890625 
Q 32.328125 33.6875 34.8125 36.53125 
Q 39.546875 41.84375 41.421875 45.53125 
Q 43.3125 49.21875 43.3125 52.78125 
Q 43.3125 58.59375 39.234375 62.25 
Q 35.15625 65.921875 28.609375 65.921875 
Q 23.96875 65.921875 18.8125 64.3125 
Q 13.671875 62.703125 7.8125 59.421875 
L 7.8125 69.390625 
Q 13.765625 71.78125 18.9375 73 
Q 24.125 74.21875 28.421875 74.21875 
Q 39.75 74.21875 46.484375 68.546875 
Q 53.21875 62.890625 53.21875 53.421875 
Q 53.21875 48.921875 51.53125 44.890625 
Q 49.859375 40.875 45.40625 35.40625 
Q 44.1875 33.984375 37.640625 27.21875 
Q 31.109375 20.453125 19.1875 8.296875 
z
" id="DejaVuSans-32"/>
      </defs>
      <g transform="translate(156.05625 266.598437)scale(0.1 -0.1)">
       <use xlink:href="#DejaVuSans-32"/>
       <use x="63.623047" xlink:href="#DejaVuSans-30"/>
       <use x="127.246094" xlink:href="#DejaVuSans-30"/>
      </g>
     </g>
    </g>
    <g id="xtick_4">
     <g id="line2d_7">
      <path clip-path="url(#pd1cfb29583)" d="M 221.4 252 
L 221.4 34.56 
" style="fill:none;stroke:#b0b0b0;stroke-linecap:square;stroke-width:0.8;"/>
     </g>
     <g id="line2d_8">
      <g>
       <use style="stroke:#000000;stroke-width:0.8;" x="221.4" xlink:href="#m5f996f75a7" y="252"/>
      </g>
     </g>
     <g id="text_4">
      <!-- 300 -->
      <defs>
       <path d="M 40.578125 39.3125 
Q 47.65625 37.796875 51.625 33 
Q 55.609375 28.21875 55.609375 21.1875 
Q 55.609375 10.40625 48.1875 4.484375 
Q 40.765625 -1.421875 27.09375 -1.421875 
Q 22.515625 -1.421875 17.65625 -0.515625 
Q 12.796875 0.390625 7.625 2.203125 
L 7.625 11.71875 
Q 11.71875 9.328125 16.59375 8.109375 
Q 21.484375 6.890625 26.8125 6.890625 
Q 36.078125 6.890625 40.9375 10.546875 
Q 45.796875 14.203125 45.796875 21.1875 
Q 45.796875 27.640625 41.28125 31.265625 
Q 36.765625 34.90625 28.71875 34.90625 
L 20.21875 34.90625 
L 20.21875 43.015625 
L 29.109375 43.015625 
Q 36.375 43.015625 40.234375 45.921875 
Q 44.09375 48.828125 44.09375 54.296875 
Q 44.09375 59.90625 40.109375 62.90625 
Q 36.140625 65.921875 28.71875 65.921875 
Q 24.65625 65.921875 20.015625 65.03125 
Q 15.375 64.15625 9.8125 62.3125 
L 9.8125 71.09375 
Q 15.4375 72.65625 20.34375 73.4375 
Q 25.25 74.21875 29.59375 74.21875 
Q 40.828125 74.21875 47.359375 69.109375 
Q 53.90625 64.015625 53.90625 55.328125 
Q 53.90625 49.265625 50.4375 45.09375 
Q 46.96875 40.921875 40.578125 39.3125 
z
" id="DejaVuSans-33"/>
      </defs>
      <g transform="translate(211.85625 266.598437)scale(0.1 -0.1)">
       <use xlink:href="#DejaVuSans-33"/>
       <use x="63.623047" xlink:href="#DejaVuSans-30"/>
       <use x="127.246094" xlink:href="#DejaVuSans-30"/>
      </g>
     </g>
    </g>
    <g id="xtick_5">
     <g id="line2d_9">
      <path clip-path="url(#pd1cfb29583)" d="M 277.2 252 
L 277.2 34.56 
" style="fill:none;stroke:#b0b0b0;stroke-linecap:square;stroke-width:0.8;"/>
     </g>
     <g id="line2d_10">
      <g>
       <use style="stroke:#000000;stroke-width:0.8;" x="277.2" xlink:href="#m5f996f75a7" y="252"/>
      </g>
     </g>
     <g id="text_5">
      <!-- 400 -->
      <defs>
       <path d="M 37.796875 64.3125 
L 12.890625 25.390625 
L 37.796875 25.390625 
z
M 35.203125 72.90625 
L 47.609375 72.90625 
L 47.609375 25.390625 
L 58.015625 25.390625 
L 58.015625 17.1875 
L 47.609375 17.1875 
L 47.609375 0 
L 37.796875 0 
L 37.796875 17.1875 
L 4.890625 17.1875 
L 4.890625 26.703125 
z
" id="DejaVuSans-34"/>
      </defs>
      <g transform="translate(267.65625 266.598437)scale(0.1 -0.1)">
       <use xlink:href="#DejaVuSans-34"/>
       <use x="63.623047" xlink:href="#DejaVuSans-30"/>
       <use x="127.246094" xlink:href="#DejaVuSans-30"/>
      </g>
     </g>
    </g>
    <g id="xtick_6">
     <g id="line2d_11">
      <path clip-path="url(#pd1cfb29583)" d="M 333 252 
L 333 34.56 
" style="fill:none;stroke:#b0b0b0;stroke-linecap:square;stroke-width:0.8;"/>
     </g>
     <g id="line2d_12">
      <g>
       <use style="stroke:#000000;stroke-width:0.8;" x="333" xlink:href="#m5f996f75a7" y="252"/>
      </g>
     </g>
     <g id="text_6">
      <!-- 500 -->
      <defs>
       <path d="M 10.796875 72.90625 
L 49.515625 72.90625 
L 49.515625 64.59375 
L 19.828125 64.59375 
L 19.828125 46.734375 
Q 21.96875 47.46875 24.109375 47.828125 
Q 26.265625 48.1875 28.421875 48.1875 
Q 40.625 48.1875 47.75 41.5 
Q 54.890625 34.8125 54.890625 23.390625 
Q 54.890625 11.625 47.5625 5.09375 
Q 40.234375 -1.421875 26.90625 -1.421875 
Q 22.3125 -1.421875 17.546875 -0.640625 
Q 12.796875 0.140625 7.71875 1.703125 
L 7.71875 11.625 
Q 12.109375 9.234375 16.796875 8.0625 
Q 21.484375 6.890625 26.703125 6.890625 
Q 35.15625 6.890625 40.078125 11.328125 
Q 45.015625 15.765625 45.015625 23.390625 
Q 45.015625 31 40.078125 35.4375 
Q 35.15625 39.890625 26.703125 39.890625 
Q 22.75 39.890625 18.8125 39.015625 
Q 14.890625 38.140625 10.796875 36.28125 
z
" id="DejaVuSans-35"/>
      </defs>
      <g transform="translate(323.45625 266.598437)scale(0.1 -0.1)">
       <use xlink:href="#DejaVuSans-35"/>
       <use x="63.623047" xlink:href="#DejaVuSans-30"/>
       <use x="127.246094" xlink:href="#DejaVuSans-30"/>
      </g>
     </g>
    </g>
    <g id="xtick_7">
     <g id="line2d_13">
      <path clip-path="url(#pd1cfb29583)" d="M 388.8 252 
L 388.8 34.56 
" style="fill:none;stroke:#b0b0b0;stroke-linecap:square;stroke-width:0.8;"/>
     </g>
     <g id="line2d_14">
      <g>
       <use style="stroke:#000000;stroke-width:0.8;" x="388.8" xlink:href="#m5f996f75a7" y="252"/>
      </g>
     </g>
     <g id="text_7">
      <!-- 600 -->
      <defs>
       <path d="M 33.015625 40.375 
Q 26.375 40.375 22.484375 35.828125 
Q 18.609375 31.296875 18.609375 23.390625 
Q 18.609375 15.53125 22.484375 10.953125 
Q 26.375 6.390625 33.015625 6.390625 
Q 39.65625 6.390625 43.53125 10.953125 
Q 47.40625 15.53125 47.40625 23.390625 
Q 47.40625 31.296875 43.53125 35.828125 
Q 39.65625 40.375 33.015625 40.375 
z
M 52.59375 71.296875 
L 52.59375 62.3125 
Q 48.875 64.0625 45.09375 64.984375 
Q 41.3125 65.921875 37.59375 65.921875 
Q 27.828125 65.921875 22.671875 59.328125 
Q 17.53125 52.734375 16.796875 39.40625 
Q 19.671875 43.65625 24.015625 45.921875 
Q 28.375 48.1875 33.59375 48.1875 
Q 44.578125 48.1875 50.953125 41.515625 
Q 57.328125 34.859375 57.328125 23.390625 
Q 57.328125 12.15625 50.6875 5.359375 
Q 44.046875 -1.421875 33.015625 -1.421875 
Q 20.359375 -1.421875 13.671875 8.265625 
Q 6.984375 17.96875 6.984375 36.375 
Q 6.984375 53.65625 15.1875 63.9375 
Q 23.390625 74.21875 37.203125 74.21875 
Q 40.921875 74.21875 44.703125 73.484375 
Q 48.484375 72.75 52.59375 71.296875 
z
" id="DejaVuSans-36"/>
      </defs>
      <g transform="translate(379.25625 266.598437)scale(0.1 -0.1)">
       <use xlink:href="#DejaVuSans-36"/>
       <use x="63.623047" xlink:href="#DejaVuSans-30"/>
       <use x="127.246094" xlink:href="#DejaVuSans-30"/>
      </g>
     </g>
    </g>
    <g id="text_8">
     <!-- step -->
     <defs>
      <path d="M 44.28125 53.078125 
L 44.28125 44.578125 
Q 40.484375 46.53125 36.375 47.5 
Q 32.28125 48.484375 27.875 48.484375 
Q 21.1875 48.484375 17.84375 46.4375 
Q 14.5 44.390625 14.5 40.28125 
Q 14.5 37.15625 16.890625 35.375 
Q 19.28125 33.59375 26.515625 31.984375 
L 29.59375 31.296875 
Q 39.15625 29.25 43.1875 25.515625 
Q 47.21875 21.78125 47.21875 15.09375 
Q 47.21875 7.46875 41.1875 3.015625 
Q 35.15625 -1.421875 24.609375 -1.421875 
Q 20.21875 -1.421875 15.453125 -0.5625 
Q 10.6875 0.296875 5.421875 2 
L 5.421875 11.28125 
Q 10.40625 8.6875 15.234375 7.390625 
Q 20.0625 6.109375 24.8125 6.109375 
Q 31.15625 6.109375 34.5625 8.28125 
Q 37.984375 10.453125 37.984375 14.40625 
Q 37.984375 18.0625 35.515625 20.015625 
Q 33.0625 21.96875 24.703125 23.78125 
L 21.578125 24.515625 
Q 13.234375 26.265625 9.515625 29.90625 
Q 5.8125 33.546875 5.8125 39.890625 
Q 5.8125 47.609375 11.28125 51.796875 
Q 16.75 56 26.8125 56 
Q 31.78125 56 36.171875 55.265625 
Q 40.578125 54.546875 44.28125 53.078125 
z
" id="DejaVuSans-73"/>
      <path d="M 18.3125 70.21875 
L 18.3125 54.6875 
L 36.8125 54.6875 
L 36.8125 47.703125 
L 18.3125 47.703125 
L 18.3125 18.015625 
Q 18.3125 11.328125 20.140625 9.421875 
Q 21.96875 7.515625 27.59375 7.515625 
L 36.8125 7.515625 
L 36.8125 0 
L 27.59375 0 
Q 17.1875 0 13.234375 3.875 
Q 9.28125 7.765625 9.28125 18.015625 
L 9.28125 47.703125 
L 2.6875 47.703125 
L 2.6875 54.6875 
L 9.28125 54.6875 
L 9.28125 70.21875 
z
" id="DejaVuSans-74"/>
      <path d="M 56.203125 29.59375 
L 56.203125 25.203125 
L 14.890625 25.203125 
Q 15.484375 15.921875 20.484375 11.0625 
Q 25.484375 6.203125 34.421875 6.203125 
Q 39.59375 6.203125 44.453125 7.46875 
Q 49.3125 8.734375 54.109375 11.28125 
L 54.109375 2.78125 
Q 49.265625 0.734375 44.1875 -0.34375 
Q 39.109375 -1.421875 33.890625 -1.421875 
Q 20.796875 -1.421875 13.15625 6.1875 
Q 5.515625 13.8125 5.515625 26.8125 
Q 5.515625 40.234375 12.765625 48.109375 
Q 20.015625 56 32.328125 56 
Q 43.359375 56 49.78125 48.890625 
Q 56.203125 41.796875 56.203125 29.59375 
z
M 47.21875 32.234375 
Q 47.125 39.59375 43.09375 43.984375 
Q 39.0625 48.390625 32.421875 48.390625 
Q 24.90625 48.390625 20.390625 44.140625 
Q 15.875 39.890625 15.1875 32.171875 
z
" id="DejaVuSans-65"/>
      <path d="M 18.109375 8.203125 
L 18.109375 -20.796875 
L 9.078125 -20.796875 
L 9.078125 54.6875 
L 18.109375 54.6875 
L 18.109375 46.390625 
Q 20.953125 51.265625 25.265625 53.625 
Q 29.59375 56 35.59375 56 
Q 45.5625 56 51.78125 48.09375 
Q 58.015625 40.1875 58.015625 27.296875 
Q 58.015625 14.40625 51.78125 6.484375 
Q 45.5625 -1.421875 35.59375 -1.421875 
Q 29.59375 -1.421875 25.265625 0.953125 
Q 20.953125 3.328125 18.109375 8.203125 
z
M 48.6875 27.296875 
Q 48.6875 37.203125 44.609375 42.84375 
Q 40.53125 48.484375 33.40625 48.484375 
Q 26.265625 48.484375 22.1875 42.84375 
Q 18.109375 37.203125 18.109375 27.296875 
Q 18.109375 17.390625 22.1875 11.75 
Q 26.265625 6.109375 33.40625 6.109375 
Q 40.53125 6.109375 44.609375 11.75 
Q 48.6875 17.390625 48.6875 27.296875 
z
" id="DejaVuSans-70"/>
     </defs>
     <g transform="translate(210.584375 280.276563)scale(0.1 -0.1)">
      <use xlink:href="#DejaVuSans-73"/>
      <use x="52.099609" xlink:href="#DejaVuSans-74"/>
      <use x="91.308594" xlink:href="#DejaVuSans-65"/>
      <use x="152.832031" xlink:href="#DejaVuSans-70"/>
     </g>
    </g>
   </g>
   <g id="matplotlib.axis_2">
    <g id="ytick_1">
     <g id="line2d_15">
      <path clip-path="url(#pd1cfb29583)" d="M 54 252 
L 388.8 252 
" style="fill:none;stroke:#b0b0b0;stroke-linecap:square;stroke-width:0.8;"/>
     </g>
     <g id="line2d_16">
      <defs>
       <path d="M 0 0 
L -3.5 0 
" id="mb66bb5786a" style="stroke:#000000;stroke-width:0.8;"/>
      </defs>
      <g>
       <use style="stroke:#000000;stroke-width:0.8;" x="54" xlink:href="#mb66bb5786a" y="252"/>
      </g>
     </g>
     <g id="text_9">
      <!-- 0 -->
      <g transform="translate(40.6375 255.799219)scale(0.1 -0.1)">
       <use xlink:href="#DejaVuSans-30"/>
      </g>
     </g>
    </g>
    <g id="ytick_2">
     <g id="line2d_17">
      <path clip-path="url(#pd1cfb29583)" d="M 54 224.82 
L 388.8 224.82 
" style="fill:none;stroke:#b0b0b0;stroke-linecap:square;stroke-width:0.8;"/>
     </g>
     <g id="line2d_18">
      <g>
       <use style="stroke:#000000;stroke-width:0.8;" x="54" xlink:href="#mb66bb5786a" y="224.82"/>
      </g>
     </g>
     <g id="text_10">
      <!-- 50 -->
      <g transform="translate(34.275 228.619219)scale(0.1 -0.1)">
       <use xlink:href="#DejaVuSans-35"/>
       <use x="63.623047" xlink:href="#DejaVuSans-30"/>
      </g>
     </g>
    </g>
    <g id="ytick_3">
     <g id="line2d_19">
      <path clip-path="url(#pd1cfb29583)" d="M 54 197.64 
L 388.8 197.64 
" style="fill:none;stroke:#b0b0b0;stroke-linecap:square;stroke-width:0.8;"/>
     </g>
     <g id="line2d_20">
      <g>
       <use style="stroke:#000000;stroke-width:0.8;" x="54" xlink:href="#mb66bb5786a" y="197.64"/>
      </g>
     </g>
     <g id="text_11">
      <!-- 100 -->
      <g transform="translate(27.9125 201.439219)scale(0.1 -0.1)">
       <use xlink:href="#DejaVuSans-31"/>
       <use x="63.623047" xlink:href="#DejaVuSans-30"/>
       <use x="127.246094" xlink:href="#DejaVuSans-30"/>
      </g>
     </g>
    </g>
    <g id="ytick_4">
     <g id="line2d_21">
      <path clip-path="url(#pd1cfb29583)" d="M 54 170.46 
L 388.8 170.46 
" style="fill:none;stroke:#b0b0b0;stroke-linecap:square;stroke-width:0.8;"/>
     </g>
     <g id="line2d_22">
      <g>
       <use style="stroke:#000000;stroke-width:0.8;" x="54" xlink:href="#mb66bb5786a" y="170.46"/>
      </g>
     </g>
     <g id="text_12">
      <!-- 150 -->
      <g transform="translate(27.9125 174.259219)scale(0.1 -0.1)">
       <use xlink:href="#DejaVuSans-31"/>
       <use x="63.623047" xlink:href="#DejaVuSans-35"/>
       <use x="127.246094" xlink:href="#DejaVuSans-30"/>
      </g>
     </g>
    </g>
    <g id="ytick_5">
     <g id="line2d_23">
      <path clip-path="url(#pd1cfb29583)" d="M 54 143.28 
L 388.8 143.28 
" style="fill:none;stroke:#b0b0b0;stroke-linecap:square;stroke-width:0.8;"/>
     </g>
     <g id="line2d_24">
      <g>
       <use style="stroke:#000000;stroke-width:0.8;" x="54" xlink:href="#mb66bb5786a" y="143.28"/>
      </g>
     </g>
     <g id="text_13">
      <!-- 200 -->
      <g transform="translate(27.9125 147.079219)scale(0.1 -0.1)">
       <use xlink:href="#DejaVuSans-32"/>
       <use x="63.623047" xlink:href="#DejaVuSans-30"/>
       <use x="127.246094" xlink:href="#DejaVuSans-30"/>
      </g>
     </g>
    </g>
    <g id="ytick_6">
     <g id="line2d_25">
      <path clip-path="url(#pd1cfb29583)" d="M 54 116.1 
L 388.8 116.1 
" style="fill:none;stroke:#b0b0b0;stroke-linecap:square;stroke-width:0.8;"/>
     </g>
     <g id="line2d_26">
      <g>
       <use style="stroke:#000000;stroke-width:0.8;" x="54" xlink:href="#mb66bb5786a" y="116.1"/>
      </g>
     </g>
     <g id="text_14">
      <!-- 250 -->
      <g transform="translate(27.9125 119.899219)scale(0.1 -0.1)">
       <use xlink:href="#DejaVuSans-32"/>
       <use x="63.623047" xlink:href="#DejaVuSans-35"/>
       <use x="127.246094" xlink:href="#DejaVuSans-30"/>
      </g>
     </g>
    </g>
    <g id="ytick_7">
     <g id="line2d_27">
      <path clip-path="url(#pd1cfb29583)" d="M 54 88.92 
L 388.8 88.92 
" style="fill:none;stroke:#b0b0b0;stroke-linecap:square;stroke-width:0.8;"/>
     </g>
     <g id="line2d_28">
      <g>
       <use style="stroke:#000000;stroke-width:0.8;" x="54" xlink:href="#mb66bb5786a" y="88.92"/>
      </g>
     </g>
     <g id="text_15">
      <!-- 300 -->
      <g transform="translate(27.9125 92.719219)scale(0.1 -0.1)">
       <use xlink:href="#DejaVuSans-33"/>
       <use x="63.623047" xlink:href="#DejaVuSans-30"/>
       <use x="127.246094" xlink:href="#DejaVuSans-30"/>
      </g>
     </g>
    </g>
    <g id="ytick_8">
     <g id="line2d_29">
      <path clip-path="url(#pd1cfb29583)" d="M 54 61.74 
L 388.8 61.74 
" style="fill:none;stroke:#b0b0b0;stroke-linecap:square;stroke-width:0.8;"/>
     </g>
     <g id="line2d_30">
      <g>
       <use style="stroke:#000000;stroke-width:0.8;" x="54" xlink:href="#mb66bb5786a" y="61.74"/>
      </g>
     </g>
     <g id="text_16">
      <!-- 350 -->
      <g transform="translate(27.9125 65.539219)scale(0.1 -0.1)">
       <use xlink:href="#DejaVuSans-33"/>
       <use x="63.623047" xlink:href="#DejaVuSans-35"/>
       <use x="127.246094" xlink:href="#DejaVuSans-30"/>
      </g>
     </g>
    </g>
    <g id="ytick_9">
     <g id="line2d_31">
      <path clip-path="url(#pd1cfb29583)" d="M 54 34.56 
L 388.8 34.56 
" style="fill:none;stroke:#b0b0b0;stroke-linecap:square;stroke-width:0.8;"/>
     </g>
     <g id="line2d_32">
      <g>
       <use style="stroke:#000000;stroke-width:0.8;" x="54" xlink:href="#mb66bb5786a" y="34.56"/>
      </g>
     </g>
     <g id="text_17">
      <!-- 400 -->
      <g transform="translate(27.9125 38.359219)scale(0.1 -0.1)">
       <use xlink:href="#DejaVuSans-34"/>
       <use x="63.623047" xlink:href="#DejaVuSans-30"/>
       <use x="127.246094" xlink:href="#DejaVuSans-30"/>
      </g>
     </g>
    </g>
    <g id="text_18">
     <!-- return -->
     <defs>
      <path d="M 41.109375 46.296875 
Q 39.59375 47.171875 37.8125 47.578125 
Q 36.03125 48 33.890625 48 
Q 26.265625 48 22.1875 43.046875 
Q 18.109375 38.09375 18.109375 28.8125 
L 18.109375 0 
L 9.078125 0 
L 9.078125 54.6875 
L 18.109375 54.6875 
L 18.109375 46.1875 
Q 20.953125 51.171875 25.484375 53.578125 
Q 30.03125 56 36.53125 56 
Q 37.453125 56 38.578125 55.875 
Q 39.703125 55.765625 41.0625 55.515625 
z
" id="DejaVuSans-72"/>
      <path d="M 8.5 21.578125 
L 8.5 54.6875 
L 17.484375 54.6875 
L 17.484375 21.921875 
Q 17.484375 14.15625 20.5 10.265625 
Q 23.53125 6.390625 29.59375 6.390625 
Q 36.859375 6.390625 41.078125 11.03125 
Q 45.3125 15.671875 45.3125 23.6875 
L 45.3125 54.6875 
L 54.296875 54.6875 
L 54.296875 0 
L 45.3125 0 
L 45.3125 8.40625 
Q 42.046875 3.421875 37.71875 1 
Q 33.40625 -1.421875 27.6875 -1.421875 
Q 18.265625 -1.421875 13.375 4.4375 
Q 8.5 10.296875 8.5 21.578125 
z
M 31.109375 56 
z
" id="DejaVuSans-75"/>
      <path d="M 54.890625 33.015625 
L 54.890625 0 
L 45.90625 0 
L 45.90625 32.71875 
Q 45.90625 40.484375 42.875 44.328125 
Q 39.84375 48.1875 33.796875 48.1875 
Q 26.515625 48.1875 22.3125 43.546875 
Q 18.109375 38.921875 18.109375 30.90625 
L 18.109375 0 
L 9.078125 0 
L 9.078125 54.6875 
L 18.109375 54.6875 
L 18.109375 46.1875 
Q 21.34375 51.125 25.703125 53.5625 
Q 30.078125 56 35.796875 56 
Q 45.21875 56 50.046875 50.171875 
Q 54.890625 44.34375 54.890625 33.015625 
z
" id="DejaVuSans-6e"/>
     </defs>
     <g transform="translate(21.832812 158.762812)rotate(-90)scale(0.1 -0.1)">
      <use xlink:href="#DejaVuSans-72"/>
      <use x="41.082031" xlink:href="#DejaVuSans-65"/>
      <use x="102.605469" xlink:href="#DejaVuSans-74"/>
      <use x="141.814453" xlink:href="#DejaVuSans-75"/>
      <use x="205.193359" xlink:href="#DejaVuSans-72"/>
      <use x="246.291016" xlink:href="#DejaVuSans-6e"/>
     </g>
    </g>
   </g>
   <g id="line2d_33">
    <path clip-path="url(#pd1cfb29583)" d="M 54 243.522083 
L 56.79 243.522083 
L 57.348 244.921391 
L 58.464 241.991239 
L 61.812 232.290348 
L 64.602 224.032949 
L 65.718 221.132787 
L 67.392 217.064452 
L 67.95 216.027534 
L 69.066 214.569868 
L 70.182 213.682644 
L 70.74 213.035813 
L 71.856 212.717418 
L 72.414 211.961358 
L 73.53 210.896507 
L 75.204 207.69184 
L 75.762 206.925136 
L 76.32 205.859473 
L 77.436 201.945156 
L 79.11 198.953807 
L 79.668 198.198056 
L 81.342 194.589851 
L 81.9 193.927257 
L 82.458 193.929652 
L 83.574 193.450671 
L 84.132 192.878576 
L 85.248 192.793389 
L 85.806 193.281868 
L 86.922 192.74885 
L 88.038 191.991666 
L 89.154 192.856905 
L 89.712 192.8948 
L 90.27 192.68278 
L 90.828 192.282982 
L 91.386 191.637986 
L 91.944 191.217464 
L 93.06 190.827034 
L 93.618 190.868189 
L 94.734 189.896578 
L 95.292 189.898879 
L 95.85 189.672803 
L 96.408 189.795099 
L 96.966 189.607016 
L 97.524 189.756204 
L 98.082 189.683926 
L 98.64 190.07057 
L 99.198 190.062945 
L 99.756 189.588842 
L 100.314 189.499687 
L 100.872 189.15958 
L 101.43 189.016668 
L 101.988 188.675288 
L 103.104 189.105946 
L 103.662 189.580711 
L 104.22 189.150021 
L 105.336 189.453448 
L 106.452 188.939952 
L 107.01 188.517146 
L 107.568 188.577143 
L 108.126 188.451986 
L 108.684 187.891719 
L 109.242 187.702732 
L 109.8 188.059174 
L 110.916 188.098636 
L 111.474 188.093473 
L 112.59 188.480565 
L 113.148 188.318607 
L 113.706 188.326514 
L 114.264 189.072359 
L 114.822 189.410815 
L 115.938 189.731712 
L 117.054 191.110864 
L 117.612 191.713339 
L 118.17 191.930515 
L 118.728 192.460637 
L 119.286 192.71494 
L 119.844 191.787093 
L 120.402 191.5349 
L 120.96 190.955673 
L 121.518 190.990285 
L 122.076 191.217017 
L 122.634 191.266121 
L 123.192 191.191222 
L 123.75 191.259441 
L 124.308 191.026292 
L 124.866 191.138903 
L 125.424 191.818939 
L 126.54 192.390997 
L 127.098 192.005009 
L 127.656 191.121695 
L 128.214 191.002954 
L 128.772 190.506458 
L 129.33 190.489662 
L 129.888 190.802255 
L 132.12 189.489842 
L 132.678 189.826008 
L 133.236 190.0107 
L 133.794 189.769596 
L 134.352 190.136745 
L 135.468 190.064171 
L 136.026 190.360034 
L 136.584 191.131751 
L 137.7 191.733466 
L 139.374 192.944425 
L 139.932 192.519655 
L 140.49 192.746799 
L 141.048 193.231936 
L 142.164 194.479661 
L 142.722 195.076236 
L 143.28 195.448248 
L 143.838 195.260767 
L 144.954 195.169214 
L 145.512 195.770789 
L 146.07 195.685479 
L 146.628 195.949123 
L 147.186 195.801541 
L 147.744 194.919581 
L 148.86 194.888667 
L 149.418 194.896581 
L 149.976 194.677005 
L 150.534 194.311559 
L 151.092 194.437291 
L 151.65 194.839681 
L 152.208 194.450112 
L 152.766 194.499842 
L 153.324 195.380508 
L 153.882 195.605492 
L 154.44 196.084519 
L 154.998 196.84848 
L 156.114 199.094121 
L 156.672 199.685976 
L 157.23 200.109672 
L 157.788 200.130874 
L 158.346 201.007604 
L 159.462 201.497919 
L 160.02 201.766362 
L 160.578 201.86838 
L 161.136 200.926541 
L 164.484 200.926541 
L 164.484 200.926541 
" style="fill:none;stroke:#ff0000;stroke-linecap:square;"/>
   </g>
   <g id="patch_3">
    <path d="M 54 252 
L 54 34.56 
" style="fill:none;stroke:#000000;stroke-linecap:square;stroke-linejoin:miter;stroke-width:0.8;"/>
   </g>
   <g id="patch_4">
    <path d="M 388.8 252 
L 388.8 34.56 
" style="fill:none;stroke:#000000;stroke-linecap:square;stroke-linejoin:miter;stroke-width:0.8;"/>
   </g>
   <g id="patch_5">
    <path d="M 54 252 
L 388.8 252 
" style="fill:none;stroke:#000000;stroke-linecap:square;stroke-linejoin:miter;stroke-width:0.8;"/>
   </g>
   <g id="patch_6">
    <path d="M 54 34.56 
L 388.8 34.56 
" style="fill:none;stroke:#000000;stroke-linecap:square;stroke-linejoin:miter;stroke-width:0.8;"/>
   </g>
   <g id="text_19">
    <!-- return of DQN agent on Breakout -->
    <defs>
     <path id="DejaVuSans-20"/>
     <path d="M 30.609375 48.390625 
Q 23.390625 48.390625 19.1875 42.75 
Q 14.984375 37.109375 14.984375 27.296875 
Q 14.984375 17.484375 19.15625 11.84375 
Q 23.34375 6.203125 30.609375 6.203125 
Q 37.796875 6.203125 41.984375 11.859375 
Q 46.1875 17.53125 46.1875 27.296875 
Q 46.1875 37.015625 41.984375 42.703125 
Q 37.796875 48.390625 30.609375 48.390625 
z
M 30.609375 56 
Q 42.328125 56 49.015625 48.375 
Q 55.71875 40.765625 55.71875 27.296875 
Q 55.71875 13.875 49.015625 6.21875 
Q 42.328125 -1.421875 30.609375 -1.421875 
Q 18.84375 -1.421875 12.171875 6.21875 
Q 5.515625 13.875 5.515625 27.296875 
Q 5.515625 40.765625 12.171875 48.375 
Q 18.84375 56 30.609375 56 
z
" id="DejaVuSans-6f"/>
     <path d="M 37.109375 75.984375 
L 37.109375 68.5 
L 28.515625 68.5 
Q 23.6875 68.5 21.796875 66.546875 
Q 19.921875 64.59375 19.921875 59.515625 
L 19.921875 54.6875 
L 34.71875 54.6875 
L 34.71875 47.703125 
L 19.921875 47.703125 
L 19.921875 0 
L 10.890625 0 
L 10.890625 47.703125 
L 2.296875 47.703125 
L 2.296875 54.6875 
L 10.890625 54.6875 
L 10.890625 58.5 
Q 10.890625 67.625 15.140625 71.796875 
Q 19.390625 75.984375 28.609375 75.984375 
z
" id="DejaVuSans-66"/>
     <path d="M 19.671875 64.796875 
L 19.671875 8.109375 
L 31.59375 8.109375 
Q 46.6875 8.109375 53.6875 14.9375 
Q 60.6875 21.78125 60.6875 36.53125 
Q 60.6875 51.171875 53.6875 57.984375 
Q 46.6875 64.796875 31.59375 64.796875 
z
M 9.8125 72.90625 
L 30.078125 72.90625 
Q 51.265625 72.90625 61.171875 64.09375 
Q 71.09375 55.28125 71.09375 36.53125 
Q 71.09375 17.671875 61.125 8.828125 
Q 51.171875 0 30.078125 0 
L 9.8125 0 
z
" id="DejaVuSans-44"/>
     <path d="M 39.40625 66.21875 
Q 28.65625 66.21875 22.328125 58.203125 
Q 16.015625 50.203125 16.015625 36.375 
Q 16.015625 22.609375 22.328125 14.59375 
Q 28.65625 6.59375 39.40625 6.59375 
Q 50.140625 6.59375 56.421875 14.59375 
Q 62.703125 22.609375 62.703125 36.375 
Q 62.703125 50.203125 56.421875 58.203125 
Q 50.140625 66.21875 39.40625 66.21875 
z
M 53.21875 1.3125 
L 66.21875 -12.890625 
L 54.296875 -12.890625 
L 43.5 -1.21875 
Q 41.890625 -1.3125 41.03125 -1.359375 
Q 40.1875 -1.421875 39.40625 -1.421875 
Q 24.03125 -1.421875 14.8125 8.859375 
Q 5.609375 19.140625 5.609375 36.375 
Q 5.609375 53.65625 14.8125 63.9375 
Q 24.03125 74.21875 39.40625 74.21875 
Q 54.734375 74.21875 63.90625 63.9375 
Q 73.09375 53.65625 73.09375 36.375 
Q 73.09375 23.6875 67.984375 14.640625 
Q 62.890625 5.609375 53.21875 1.3125 
z
" id="DejaVuSans-51"/>
     <path d="M 9.8125 72.90625 
L 23.09375 72.90625 
L 55.421875 11.921875 
L 55.421875 72.90625 
L 64.984375 72.90625 
L 64.984375 0 
L 51.703125 0 
L 19.390625 60.984375 
L 19.390625 0 
L 9.8125 0 
z
" id="DejaVuSans-4e"/>
     <path d="M 34.28125 27.484375 
Q 23.390625 27.484375 19.1875 25 
Q 14.984375 22.515625 14.984375 16.5 
Q 14.984375 11.71875 18.140625 8.90625 
Q 21.296875 6.109375 26.703125 6.109375 
Q 34.1875 6.109375 38.703125 11.40625 
Q 43.21875 16.703125 43.21875 25.484375 
L 43.21875 27.484375 
z
M 52.203125 31.203125 
L 52.203125 0 
L 43.21875 0 
L 43.21875 8.296875 
Q 40.140625 3.328125 35.546875 0.953125 
Q 30.953125 -1.421875 24.3125 -1.421875 
Q 15.921875 -1.421875 10.953125 3.296875 
Q 6 8.015625 6 15.921875 
Q 6 25.140625 12.171875 29.828125 
Q 18.359375 34.515625 30.609375 34.515625 
L 43.21875 34.515625 
L 43.21875 35.40625 
Q 43.21875 41.609375 39.140625 45 
Q 35.0625 48.390625 27.6875 48.390625 
Q 23 48.390625 18.546875 47.265625 
Q 14.109375 46.140625 10.015625 43.890625 
L 10.015625 52.203125 
Q 14.9375 54.109375 19.578125 55.046875 
Q 24.21875 56 28.609375 56 
Q 40.484375 56 46.34375 49.84375 
Q 52.203125 43.703125 52.203125 31.203125 
z
" id="DejaVuSans-61"/>
     <path d="M 45.40625 27.984375 
Q 45.40625 37.75 41.375 43.109375 
Q 37.359375 48.484375 30.078125 48.484375 
Q 22.859375 48.484375 18.828125 43.109375 
Q 14.796875 37.75 14.796875 27.984375 
Q 14.796875 18.265625 18.828125 12.890625 
Q 22.859375 7.515625 30.078125 7.515625 
Q 37.359375 7.515625 41.375 12.890625 
Q 45.40625 18.265625 45.40625 27.984375 
z
M 54.390625 6.78125 
Q 54.390625 -7.171875 48.1875 -13.984375 
Q 42 -20.796875 29.203125 -20.796875 
Q 24.46875 -20.796875 20.265625 -20.09375 
Q 16.0625 -19.390625 12.109375 -17.921875 
L 12.109375 -9.1875 
Q 16.0625 -11.328125 19.921875 -12.34375 
Q 23.78125 -13.375 27.78125 -13.375 
Q 36.625 -13.375 41.015625 -8.765625 
Q 45.40625 -4.15625 45.40625 5.171875 
L 45.40625 9.625 
Q 42.625 4.78125 38.28125 2.390625 
Q 33.9375 0 27.875 0 
Q 17.828125 0 11.671875 7.65625 
Q 5.515625 15.328125 5.515625 27.984375 
Q 5.515625 40.671875 11.671875 48.328125 
Q 17.828125 56 27.875 56 
Q 33.9375 56 38.28125 53.609375 
Q 42.625 51.21875 45.40625 46.390625 
L 45.40625 54.6875 
L 54.390625 54.6875 
z
" id="DejaVuSans-67"/>
     <path d="M 19.671875 34.8125 
L 19.671875 8.109375 
L 35.5 8.109375 
Q 43.453125 8.109375 47.28125 11.40625 
Q 51.125 14.703125 51.125 21.484375 
Q 51.125 28.328125 47.28125 31.5625 
Q 43.453125 34.8125 35.5 34.8125 
z
M 19.671875 64.796875 
L 19.671875 42.828125 
L 34.28125 42.828125 
Q 41.5 42.828125 45.03125 45.53125 
Q 48.578125 48.25 48.578125 53.8125 
Q 48.578125 59.328125 45.03125 62.0625 
Q 41.5 64.796875 34.28125 64.796875 
z
M 9.8125 72.90625 
L 35.015625 72.90625 
Q 46.296875 72.90625 52.390625 68.21875 
Q 58.5 63.53125 58.5 54.890625 
Q 58.5 48.1875 55.375 44.234375 
Q 52.25 40.28125 46.1875 39.3125 
Q 53.46875 37.75 57.5 32.78125 
Q 61.53125 27.828125 61.53125 20.40625 
Q 61.53125 10.640625 54.890625 5.3125 
Q 48.25 0 35.984375 0 
L 9.8125 0 
z
" id="DejaVuSans-42"/>
     <path d="M 9.078125 75.984375 
L 18.109375 75.984375 
L 18.109375 31.109375 
L 44.921875 54.6875 
L 56.390625 54.6875 
L 27.390625 29.109375 
L 57.625 0 
L 45.90625 0 
L 18.109375 26.703125 
L 18.109375 0 
L 9.078125 0 
z
" id="DejaVuSans-6b"/>
    </defs>
    <g transform="translate(121.617188 28.56)scale(0.12 -0.12)">
     <use xlink:href="#DejaVuSans-72"/>
     <use x="41.082031" xlink:href="#DejaVuSans-65"/>
     <use x="102.605469" xlink:href="#DejaVuSans-74"/>
     <use x="141.814453" xlink:href="#DejaVuSans-75"/>
     <use x="205.193359" xlink:href="#DejaVuSans-72"/>
     <use x="246.291016" xlink:href="#DejaVuSans-6e"/>
     <use x="309.669922" xlink:href="#DejaVuSans-20"/>
     <use x="341.457031" xlink:href="#DejaVuSans-6f"/>
     <use x="402.638672" xlink:href="#DejaVuSans-66"/>
     <use x="437.84375" xlink:href="#DejaVuSans-20"/>
     <use x="469.630859" xlink:href="#DejaVuSans-44"/>
     <use x="546.632812" xlink:href="#DejaVuSans-51"/>
     <use x="625.34375" xlink:href="#DejaVuSans-4e"/>
     <use x="700.148438" xlink:href="#DejaVuSans-20"/>
     <use x="731.935547" xlink:href="#DejaVuSans-61"/>
     <use x="793.214844" xlink:href="#DejaVuSans-67"/>
     <use x="856.691406" xlink:href="#DejaVuSans-65"/>
     <use x="918.214844" xlink:href="#DejaVuSans-6e"/>
     <use x="981.59375" xlink:href="#DejaVuSans-74"/>
     <use x="1020.802734" xlink:href="#DejaVuSans-20"/>
     <use x="1052.589844" xlink:href="#DejaVuSans-6f"/>
     <use x="1113.771484" xlink:href="#DejaVuSans-6e"/>
     <use x="1177.150391" xlink:href="#DejaVuSans-20"/>
     <use x="1208.9375" xlink:href="#DejaVuSans-42"/>
     <use x="1277.541016" xlink:href="#DejaVuSans-72"/>
     <use x="1318.623047" xlink:href="#DejaVuSans-65"/>
     <use x="1380.146484" xlink:href="#DejaVuSans-61"/>
     <use x="1441.425781" xlink:href="#DejaVuSans-6b"/>
     <use x="1499.289062" xlink:href="#DejaVuSans-6f"/>
     <use x="1560.470703" xlink:href="#DejaVuSans-75"/>
     <use x="1623.849609" xlink:href="#DejaVuSans-74"/>
    </g>
   </g>
  </g>
 </g>
 <defs>
  <clipPath id="pd1cfb29583">
   <rect height="217.44" width="334.8" x="54" y="34.56"/>
  </clipPath>
 </defs>
</svg>
